<?xml version="1.0" encoding="UTF-8" standalone="no"?>
<!-- Created with Inkscape (http://www.inkscape.org/) -->
<svg
   xmlns:dc="http://purl.org/dc/elements/1.1/"
   xmlns:cc="http://creativecommons.org/ns#"
   xmlns:rdf="http://www.w3.org/1999/02/22-rdf-syntax-ns#"
   xmlns:svg="http://www.w3.org/2000/svg"
   xmlns="http://www.w3.org/2000/svg"
   xmlns:sodipodi="http://sodipodi.sourceforge.net/DTD/sodipodi-0.dtd"
   xmlns:inkscape="http://www.inkscape.org/namespaces/inkscape"
   width="799.99664"
   height="415.99997"
   id="svg3254"
   sodipodi:version="0.32"
   inkscape:version="0.46"
   version="1.0"
   sodipodi:docname="logo.svg"
   inkscape:output_extension="org.inkscape.output.svg.inkscape">
  <defs
     id="defs3256">
    <inkscape:perspective
       sodipodi:type="inkscape:persp3d"
       inkscape:vp_x="0 : 526.18109 : 1"
       inkscape:vp_y="0 : 1000 : 0"
       inkscape:vp_z="744.09448 : 526.18109 : 1"
       inkscape:persp3d-origin="372.04724 : 350.78739 : 1"
       id="perspective3262" />
  </defs>
  <sodipodi:namedview
     id="base"
     pagecolor="#000000"
     bordercolor="#666666"
     borderopacity="1.0"
     gridtolerance="10000"
     guidetolerance="10"
     objecttolerance="10"
     inkscape:pageopacity="1"
     inkscape:pageshadow="2"
     inkscape:zoom="1"
     inkscape:cx="479.89001"
     inkscape:cy="558.90026"
     inkscape:document-units="px"
     inkscape:current-layer="layer1"
     showgrid="false"
     inkscape:window-width="1649"
     inkscape:window-height="974"
     inkscape:window-x="24"
     inkscape:window-y="25"
     showguides="true"
     inkscape:guide-bbox="true" />
  <metadata
     id="metadata3259">
    <rdf:RDF>
      <cc:Work
         rdf:about="">
        <dc:format>image/svg+xml</dc:format>
        <dc:type
           rdf:resource="http://purl.org/dc/dcmitype/StillImage" />
      </cc:Work>
    </rdf:RDF>
  </metadata>
  <g
     inkscape:label="Layer 1"
     inkscape:groupmode="layer"
     id="layer1"
     transform="translate(94.172328,5.5682075)">
    <g
       id="g2456"
       transform="matrix(0.6126472,0,0,0.6133308,-46.750973,-120.56449)">
      <path
         id="path3862"
         transform="translate(-629.35791,-87.210411)"
         d="M 872.9375,515.65625 C 872.9376,515.65623 842.2086,516.72885 837.75,516.75 C 826.48692,516.80484 821.48475,519.31008 820.15625,523.625 C 816.93013,534.10233 805.44555,555.77111 819.53125,575.875 C 824.49177,582.95479 828.1464,580.5505 815.1875,601.84375 C 811.75742,607.47649 750.69105,727.86446 741.21875,746.53125 C 731.69724,765.29487 715.35252,798.66689 709.34375,810.5625 C 701.98751,825.12571 702.18644,829.69864 669.1875,829.125 C 663.23111,829.02048 656.6759,829.08323 650.75,829.1875 L 650.75,952.96875 L 657.75,952.96875 C 693.68905,942.10794 736.43891,918.89971 751.5,894.59375 C 771.34553,862.56659 785.9999,829.71875 786,829.71875 C 785.99999,829.71878 766.06285,828.83957 749.5,829.125 C 715.90234,829.69866 720.87483,825.12569 728.71875,810.5625 C 735.1258,798.66691 753.62464,765.29486 763.6875,746.53125 C 773.69838,727.86448 838.26985,607.47649 840.71875,601.84375 C 849.98465,580.5505 851.18135,582.9548 863.53125,575.875 C 898.60013,555.7711 909.69665,534.10231 917.40625,523.625 C 920.58125,519.3101 918.2059,516.80486 907,516.75 C 902.56361,516.72884 872.9377,515.65625 872.9375,515.65625 z M 828.5625,530.84375 C 836.73898,531.09402 864.8751,531.06255 864.875,531.0625 C 864.87498,531.06257 893.0623,531.09404 901.5,530.84375 C 902.66917,530.80906 898.23035,539.05502 886.15625,551.9375 C 879.34652,559.20306 864.4263,567.21401 855.5,572.34375 C 847.65161,576.85407 843.0063,579.18172 839.3125,584.0625 C 838.6238,584.97482 836.53135,585.375 836.53125,585.375 C 836.53124,585.37502 834.89295,584.97482 835.15625,584.0625 C 836.55694,579.18172 834.3284,576.85406 831.1875,572.34375 C 827.6153,567.21403 821.0387,559.20305 821.8125,551.9375 C 823.1842,539.05503 827.4293,530.80909 828.5625,530.84375 z"
         style="fill:#808080;fill-opacity:1;fill-rule:evenodd;stroke:none;stroke-width:1px;stroke-linecap:butt;stroke-linejoin:miter;stroke-opacity:1" />
      <path
         sodipodi:nodetypes="ccssscssscssccsscssscssscsc"
         id="path4078"
         d="M 14.898222,187.50218 C 5.6550224,188.02108 -2.6889776,196.47868 -8.8204776,204.75218 C -18.008088,217.12718 -8.4761776,215.34218 -3.9454776,218.12718 C 7.7335224,225.30648 4.1145224,286.16118 2.2419224,289.50218 C 1.5352224,290.76308 0.59682245,291.49708 0.55452245,294.75218 C 0.46812245,301.51908 1.0740224,304.97808 1.6795224,328.15838 C -2.5775776,332.10598 -7.7236776,335.55758 -12.820478,335.62718 C -35.249788,335.93348 -54.009888,338.57258 -74.820488,350.87718 C -84.775188,356.76298 -62.850988,375.47318 -61.445488,365.37718 C -60.682888,359.89818 -30.093288,342.97128 -5.0080776,354.37718 C -4.1657776,362.73588 -8.0599776,366.12738 -7.9454776,372.72098 C -7.2292776,414.00468 -1.9036776,579.02938 -1.6017776,618.09598 C -1.4046776,643.61818 -2.2599776,769.76748 3.2419224,865.75217 L 28.398222,865.75217 C 33.900222,769.76748 33.013722,643.61818 33.210722,618.09598 C 33.512522,579.02948 38.838122,414.00468 39.554522,372.72098 C 39.669122,366.11158 35.749822,362.70768 36.616922,354.31468 C 61.678322,343.00998 92.168022,359.90748 92.929522,365.37718 C 94.334822,375.47318 116.25912,356.76298 106.30452,350.87718 C 85.493722,338.57258 66.733622,335.93348 44.304522,335.62718 C 39.258722,335.55828 34.161422,332.18088 29.929522,328.28338 C 30.536022,305.07048 31.141022,301.53718 31.054522,294.75218 C 31.012122,291.49708 30.073622,290.76308 29.366922,289.50218 C 27.494422,286.16118 23.875322,225.30648 35.554522,218.12718 C 40.085022,215.34218 49.616922,217.12718 40.429522,204.75218 C 34.100022,196.21178 25.679522,187.50218 15.804522,187.50218 C 15.495822,187.50218 15.196322,187.48538 14.898222,187.50218 z"
         style="fill:#ffffff;fill-opacity:1;fill-rule:evenodd;stroke:none;stroke-width:1px;stroke-linecap:butt;stroke-linejoin:miter;stroke-opacity:1" />
    </g>
    <g
       id="g3174"
       transform="matrix(0.8406701,0,0,0.8501501,641.73198,-1043.2298)">
      <path
         id="path2510"
         d="M -590.75773,1660.6883 C -590.75773,1647.4186 -590.74603,1647.2686 -589.72493,1647.4282 C -588.93053,1647.5524 -588.40093,1648.464 -587.43033,1651.3782 C -583.62023,1662.817 -576.01073,1668.5786 -564.70143,1668.5881 C -559.43533,1668.5925 -556.01243,1667.5997 -553.33873,1665.2926 C -550.83833,1663.1347 -549.57293,1660.1372 -549.57043,1656.3642 C -549.56573,1648.834 -554.27633,1644.2351 -572.71853,1633.7657 C -581.61133,1628.7177 -585.07253,1626.0037 -587.72533,1621.9989 C -592.89923,1614.1881 -592.16093,1605.3574 -585.79763,1598.9425 C -578.63633,1591.7233 -567.44963,1589.8929 -555.54663,1593.9929 C -548.38733,1596.4591 -547.42023,1596.4099 -545.62953,1593.4892 C -545.02383,1592.5013 -544.16773,1591.7713 -543.61493,1591.7713 C -542.69243,1591.7713 -542.65363,1592.2906 -542.65363,1604.6524 C -542.65363,1617.1124 -542.68573,1617.5336 -543.63653,1617.5336 C -544.37453,1617.5336 -544.75363,1616.9984 -545.15743,1615.3868 C -547.35963,1606.5993 -552.38963,1600.4368 -559.36183,1597.9841 C -563.23273,1596.6224 -571.27143,1596.7318 -573.97143,1598.1828 C -578.03243,1600.3652 -580.74743,1604.4315 -580.72503,1608.2985 C -580.69573,1613.4064 -576.90673,1617.2475 -565.15483,1624.0831 C -545.93533,1635.2629 -540.31083,1640.3966 -538.30523,1648.5896 C -536.15183,1657.3858 -541.02343,1666.8036 -549.91923,1671.0429 C -554.21233,1673.0887 -557.58423,1673.7442 -563.64643,1673.7122 C -568.19593,1673.6879 -569.84083,1673.4262 -575.07973,1671.8933 C -584.07373,1669.2616 -585.90503,1669.3303 -587.76713,1672.3678 C -588.38423,1673.3741 -589.24113,1674.1097 -589.79653,1674.1097 C -590.71993,1674.1097 -590.75773,1673.5828 -590.75773,1660.6883 z"
         style="fill:#ffffff;stroke:none;stroke-width:0.5;stroke-linecap:round;stroke-linejoin:round;stroke-miterlimit:4;stroke-dasharray:none;stroke-opacity:1" />
      <path
         id="path2508"
         d="M -57.981796,1591.8957 C -60.538896,1591.8673 -63.107796,1592.2379 -65.669196,1593.0207 C -75.022496,1595.8793 -84.224396,1605.4006 -87.888096,1616.0207 C -90.626196,1623.9575 -91.410296,1634.7703 -89.794296,1642.677 C -86.406296,1659.2533 -74.632296,1671.9185 -61.106896,1673.5207 C -54.181396,1674.3413 -48.445096,1672.8992 -42.606896,1668.8957 C -35.487396,1664.0141 -29.452596,1655.091 -26.856896,1645.5833 C -25.346796,1640.052 -25.226796,1626.2163 -26.638096,1620.802 C -31.142896,1603.5206 -44.173696,1592.0495 -57.981796,1591.8957 z M -58.263096,1596.7395 C -50.144696,1596.6923 -43.792296,1603.6006 -41.013096,1615.5207 C -35.578996,1638.8262 -41.479996,1664.1813 -53.294296,1668.2395 C -55.974196,1669.1601 -60.006196,1669.238 -62.263096,1668.427 C -71.530996,1665.0965 -77.044296,1651.7652 -77.044296,1632.677 C -77.044296,1610.5624 -69.846196,1596.8067 -58.263096,1596.7395 z"
         style="fill:#ffffff;stroke:none;stroke-width:0.5;stroke-linecap:round;stroke-linejoin:round;stroke-miterlimit:4;stroke-dasharray:none;stroke-opacity:1" />
      <path
         id="path2504"
         d="M 22.030908,1660.6883 C 22.030908,1647.4186 22.042608,1647.2686 23.063808,1647.4282 C 23.858108,1647.5524 24.387808,1648.464 25.358408,1651.3782 C 29.168708,1662.817 36.777808,1668.5786 48.087108,1668.5881 C 53.353208,1668.5925 56.776208,1667.5997 59.449608,1665.2926 C 61.950308,1663.1347 63.215508,1660.1372 63.218008,1656.3642 C 63.222908,1648.834 58.512208,1644.2351 40.069908,1633.7657 C 31.177208,1628.7177 27.716208,1626.0037 25.063308,1621.9989 C 19.889408,1614.1881 20.627808,1605.3574 26.991108,1598.9425 C 34.152108,1591.7233 45.339108,1589.8929 57.241808,1593.9929 C 64.401208,1596.4591 65.368408,1596.4099 67.159008,1593.4892 C 67.764808,1592.5013 68.620708,1591.7713 69.173508,1591.7713 C 70.096208,1591.7713 70.134908,1592.2906 70.134908,1604.6524 C 70.134908,1617.1124 70.102608,1617.5336 69.151908,1617.5336 C 68.414108,1617.5336 68.035208,1616.9984 67.630908,1615.3868 C 65.428908,1606.5993 60.399008,1600.4368 53.426608,1597.9841 C 49.555908,1596.6224 41.517108,1596.7318 38.817308,1598.1828 C 34.756108,1600.3652 32.041408,1604.4315 32.063508,1608.2985 C 32.093008,1613.4064 35.881708,1617.2475 47.633408,1624.0831 C 66.853208,1635.2629 72.477808,1640.3966 74.483308,1648.5896 C 76.636408,1657.3858 71.765208,1666.8036 62.869008,1671.0429 C 58.576208,1673.0887 55.204308,1673.7442 49.142108,1673.7122 C 44.592608,1673.6879 42.947708,1673.4262 37.708708,1671.8933 C 28.715008,1669.2616 26.883708,1669.3303 25.021408,1672.3678 C 24.404408,1673.3741 23.547608,1674.1097 22.992308,1674.1097 C 22.068608,1674.1097 22.030908,1673.5828 22.030908,1660.6883 z"
         style="fill:#ffffff;stroke:none;stroke-width:0.5;stroke-linecap:round;stroke-linejoin:round;stroke-miterlimit:4;stroke-dasharray:none;stroke-opacity:1" />
      <path
         id="path2502"
         d="M -367.08401,1672.8428 C -374.52601,1671.2122 -380.98691,1666.4913 -383.87961,1660.5694 L -385.52031,1657.2112 L -385.77091,1628.6587 C -385.99351,1603.2799 -386.11411,1599.9357 -386.85551,1598.5729 C -387.76151,1596.9075 -389.12221,1596.0508 -391.65851,1595.5492 C -392.81961,1595.3194 -393.28721,1594.9486 -393.28721,1594.2569 C -393.28721,1593.3245 -392.76981,1593.2867 -380.00831,1593.2867 C -367.49161,1593.2867 -366.72971,1593.3396 -366.72971,1594.2079 C -366.72971,1594.8682 -367.40151,1595.3334 -369.10021,1595.8497 C -372.45951,1596.8707 -373.56061,1598.7128 -374.00141,1604.0479 C -374.19131,1606.3456 -374.24631,1618.7874 -374.12341,1631.6962 C -373.92941,1652.1113 -373.78811,1655.5183 -373.03761,1657.8668 C -370.76291,1664.9835 -362.25271,1669.1671 -352.46661,1667.9793 C -346.15241,1667.213 -341.90451,1664.3236 -339.57071,1659.208 C -338.41931,1656.6838 -338.41851,1656.6666 -338.27301,1628.9747 C -338.13041,1601.7969 -338.14751,1601.2258 -339.16911,1599.0983 C -340.22291,1596.9036 -341.28851,1596.2021 -344.55681,1595.5514 C -345.71721,1595.3203 -346.18541,1594.9482 -346.18541,1594.2569 C -346.18541,1593.3309 -345.70621,1593.2867 -335.66251,1593.2867 C -325.49491,1593.2867 -325.14001,1593.3207 -325.14001,1594.2911 C -325.14001,1595.076 -325.58821,1595.3676 -327.19061,1595.626 C -329.81611,1596.0492 -331.98651,1597.897 -332.63871,1600.2649 C -332.95671,1601.4191 -333.15611,1611.823 -333.16301,1627.6365 C -333.17551,1654.841 -333.36631,1657.4486 -335.68071,1662.022 C -336.28291,1663.2117 -337.90961,1665.3944 -339.29591,1666.8721 C -343.74571,1671.6148 -349.50841,1673.6293 -358.44181,1673.5645 C -361.48441,1673.5424 -365.37331,1673.2175 -367.08401,1672.8428 z"
         style="fill:#ffffff;stroke:none;stroke-width:0.5;stroke-linecap:round;stroke-linejoin:round;stroke-miterlimit:4;stroke-dasharray:none;stroke-opacity:1" />
      <path
         id="path2500"
         d="M -483.09435,1671.1685 C -483.09435,1670.4195 -482.45405,1670.148 -479.65805,1669.7118 C -475.74045,1669.1006 -473.89185,1668.0724 -472.67145,1665.8261 C -471.89915,1664.4052 -471.80675,1661.1888 -471.67745,1631.241 L -471.53475,1598.2225 L -478.44215,1598.4336 C -484.22365,1598.61 -485.67585,1598.8172 -487.35355,1599.705 C -490.74915,1601.5017 -492.94605,1604.5068 -493.85715,1608.6004 C -494.32115,1610.6866 -494.66385,1611.2524 -495.54045,1611.3819 C -496.58175,1611.5357 -496.62725,1611.4 -496.38845,1608.856 C -496.24985,1607.3777 -495.99785,1603.2696 -495.82845,1599.7273 L -495.52035,1593.2867 L -465.56995,1593.2867 L -435.61995,1593.2867 L -435.28375,1600.9901 C -435.09865,1605.2269 -434.82665,1609.3188 -434.67875,1610.0828 C -434.44425,1611.2942 -434.56695,1611.4718 -435.63835,1611.4718 C -436.68815,1611.4718 -436.91445,1611.1721 -437.19395,1609.4095 C -437.75245,1605.8887 -439.79615,1602.4882 -442.32615,1600.8708 C -445.30855,1598.9642 -448.39975,1598.3381 -454.83475,1598.3381 L -460.09815,1598.3381 L -459.94605,1631.0462 C -459.79515,1663.5245 -459.78645,1663.7686 -458.70395,1665.8073 C -457.45465,1668.1603 -455.26725,1669.3273 -451.15045,1669.8375 C -449.00995,1670.1025 -448.51975,1670.3428 -448.51975,1671.1261 C -448.51975,1672.0547 -449.13755,1672.0892 -465.80695,1672.0892 C -482.19875,1672.0892 -483.09435,1672.0415 -483.09435,1671.1685 z"
         style="fill:#ffffff;stroke:none;stroke-width:0.5;stroke-linecap:round;stroke-linejoin:round;stroke-miterlimit:4;stroke-dasharray:none;stroke-opacity:1" />
      <path
         id="path2498"
         d="M -277.25487,1593.302 C -283.47987,1593.3562 -283.84867,1593.5552 -283.84867,1594.2395 C -283.84867,1594.9769 -283.34947,1595.2657 -281.66117,1595.5207 C -280.46137,1595.7022 -278.97057,1596.3426 -278.34867,1596.927 C -275.81307,1599.3081 -275.81447,1599.141 -275.81747,1632.302 C -275.81897,1651.1325 -276.01627,1663.9589 -276.31747,1665.052 C -276.99527,1667.5115 -279.14027,1669.3787 -281.72367,1669.802 C -283.36567,1670.0711 -283.84867,1670.3696 -283.84867,1671.1145 C -283.84867,1672.0428 -283.29837,1672.087 -269.69247,1672.0833 C -261.90687,1672.0813 -253.67317,1671.8767 -251.41107,1671.6145 C -240.70827,1670.3739 -230.53007,1663.0968 -225.75487,1653.302 C -215.81757,1632.9178 -223.27597,1605.2605 -241.00487,1596.7395 C -247.17477,1593.7741 -251.20517,1593.3021 -268.87977,1593.302 C -272.46297,1593.302 -275.17997,1593.2839 -277.25487,1593.302 z M -259.47367,1598.2083 C -256.85827,1598.2063 -253.76857,1598.5031 -252.37977,1599.0207 C -245.27697,1601.6688 -239.12417,1610.35 -236.19247,1621.8333 C -234.56297,1628.2146 -234.54247,1640.0914 -236.16117,1646.052 C -238.87457,1656.0444 -244.44457,1663.4477 -251.16117,1666.0207 C -253.51407,1666.9219 -258.99777,1667.743 -260.03617,1667.3333 C -260.31167,1667.2243 -261.37787,1666.9764 -262.41107,1666.802 L -264.31747,1666.4895 L -264.31747,1632.7083 L -264.31747,1598.927 L -263.19247,1598.552 C -262.43557,1598.3098 -261.04277,1598.2094 -259.47367,1598.2083 z"
         style="fill:#ffffff;stroke:none;stroke-width:0.5;stroke-linecap:round;stroke-linejoin:round;stroke-miterlimit:4;stroke-dasharray:none;stroke-opacity:1" />
      <path
         id="path2492"
         d="M -180.02345,1671.1283 C -180.02345,1670.2411 -179.51355,1670.1542 -173.36095,1669.9919 C -165.95935,1669.7965 -164.72855,1669.3649 -163.12235,1666.4014 C -162.29955,1664.8837 -162.23495,1662.4277 -162.23495,1632.6881 C -162.23495,1597.6363 -162.13545,1598.8682 -165.15215,1596.6155 C -166.38695,1595.6937 -167.41835,1595.5376 -173.29485,1595.3839 C -179.51255,1595.2215 -180.02345,1595.1352 -180.02345,1594.2475 C -180.02345,1593.3166 -179.27585,1593.2867 -155.97135,1593.2867 C -132.25365,1593.2867 -131.91955,1593.3008 -131.91955,1594.297 C -131.91955,1595.251 -132.25365,1595.3073 -137.92225,1595.3073 C -145.48505,1595.3073 -147.45905,1595.978 -148.93365,1599.0485 C -149.93235,1601.1288 -149.95835,1601.9809 -149.95765,1632.7212 C -149.95685,1661.7488 -149.88715,1664.3973 -149.08065,1665.9915 C -147.39005,1669.334 -146.18125,1669.7962 -138.64935,1669.9814 C -132.40085,1670.1351 -131.91955,1670.2163 -131.91955,1671.118 C -131.91955,1672.0626 -132.57665,1672.0892 -155.97135,1672.0892 C -179.27585,1672.0892 -180.02345,1672.0592 -180.02345,1671.1283 z"
         style="fill:#ffffff;stroke:none;stroke-width:0.5;stroke-linecap:round;stroke-linejoin:round;stroke-miterlimit:4;stroke-dasharray:none;stroke-opacity:1" />
    </g>
    <g
       id="g2440"
       transform="matrix(0.6103002,0,0,0.6129305,-14.2927,-150.07654)">
      <path
         id="path3385"
         d="M 818.23711,316.37885 L 818.23711,320.37436 C 818.23711,323.94988 818.88985,324.59383 824.68138,326.34598 C 829.61298,327.83789 831.83201,332.22233 833.96112,335.8835 C 836.66779,340.53754 836.7966,342.81252 836.7966,405.30977 C 836.7966,457.45164 837.51135,469.22908 831.29749,472.75965 C 812.1389,483.64596 792.49869,453.08576 784.64101,440.5383 C 766.15974,411.12068 765.25431,408.82521 771.83839,408.74671 C 775.89646,408.69832 787.08949,401.65258 792.58901,395.68632 C 800.66487,386.92487 804.07528,378.64651 804.79016,366.12861 C 806.22845,340.93677 791.17285,321.58719 763.63262,318.0114 C 758.08361,317.29087 735.17473,316.70288 712.68007,316.67951 L 671.78044,316.63662 L 671.78044,320.5891 C 671.7803,324.0167 672.38768,324.68745 676.42031,325.44372 C 683.37847,326.74921 687.72483,333.59381 689.4807,340.56627 C 691.57682,348.89165 691.57283,462.2481 689.4807,469.92417 C 687.46967,477.30164 683.30561,481.45746 676.97875,482.46902 C 672.32457,483.21332 672.33887,487.58759 672.33887,489.04224 C 672.33887,491.85036 673.26808,494.9608 678.69722,496.60352 C 683.62882,498.09529 685.84785,499.73045 687.97697,503.39162 C 690.68363,508.04538 690.81244,510.3205 690.81244,572.81788 C 690.81244,635.26536 691.45474,635.73072 690.33993,639.53735 C 688.8197,644.72754 685.63998,647.82932 677.23652,648.04378 C 667.32396,648.29344 663.43746,642.8078 659.7081,633.95231 C 657.71014,629.20851 644.98451,595.94865 630.70896,557.00794 C 624.26428,539.4288 619.42437,526.29486 615.71522,516.36594 C 615.65776,516.21279 615.60153,516.00479 615.54338,515.8504 C 613.46073,510.2787 611.8257,505.95448 610.38796,502.27447 C 610.33599,502.14126 610.31042,502.06125 610.25914,501.93078 C 609.10598,498.16499 609.54027,495.27232 613.39529,494.4124 C 617.97288,493.39135 620.93773,492.66258 626.49857,489.94437 C 650.96397,477.98532 669.72501,446.79093 672.03807,414.20293 C 673.6801,391.06858 667.46584,366.53884 655.36889,348.34242 C 641.64298,327.69574 620.91408,316.56939 599.81936,316.67951 C 588.76986,316.73711 577.6266,319.89745 567.34024,326.34598 C 557.44679,332.54816 552.00693,337.97853 544.57049,349.24469 C 523.99296,380.42148 523.00683,426.23319 542.20766,458.92595 C 552.57389,474.94115 567.83983,491.3274 588.13375,494.49832 C 591.83644,495.03558 591.99289,497.52269 591.01226,500.81391 L 568.11355,562.0773 C 552.35874,604.26839 537.92578,640.87707 536.02116,643.44708 C 534.11627,646.01681 530.7757,648.78121 528.63173,649.59041 C 525.63788,650.72061 524.76503,651.98183 524.76503,654.91767 L 524.76503,658.74148 L 546.07408,658.74148 L 567.38313,658.74148 L 567.38313,654.61714 C 567.38313,651.44869 566.72998,650.49267 564.67661,650.49281 C 563.20656,650.49267 560.33589,649.04311 558.27523,647.27047 C 554.63661,644.14079 554.5889,643.83394 556.04122,636.61594 C 556.86361,632.52859 558.83807,625.62639 560.46635,621.27879 L 563.43065,613.37382 L 589.33668,613.37382 L 615.24271,613.37382 L 619.49586,626.09051 C 621.82666,633.08648 623.74901,640.46711 623.74901,642.50178 C 623.74901,646.45825 619.39839,650.49281 615.15665,650.49281 C 613.35789,650.49267 612.75079,651.58122 612.75079,654.61714 L 612.75079,658.74148 L 644.37067,658.74148 L 672.25295,658.74148 L 675.99056,658.74148 L 708.55573,658.74148 C 728.53826,658.74134 749.72702,658.06344 755.64186,657.28064 C 777.44542,654.39415 796.84628,640.60555 807.45365,620.41955 C 828.40482,580.54908 817.16877,521.86986 784.25428,499.22412 C 781.03772,497.011 773.53294,493.52443 767.58511,491.4481 C 760.02699,488.80922 757.16031,489.05901 741.89409,487.58168 C 736.54964,487.06435 730.7764,484.06335 728.5329,478.73141 C 726.80701,474.62907 727.42112,471.12229 727.02917,443.54563 C 726.68988,419.66726 726.95576,414.03878 728.40395,414.50359 C 729.39131,414.82048 747.38495,439.49333 762.086,458.19581 C 782.49539,484.15986 797.97882,490.5358 820.94377,496.47456 C 830.23121,498.87644 833.06642,506.1453 834.86339,512.32767 C 836.16613,516.81068 836.77928,515.50355 836.71068,566.37347 C 836.66641,599.40044 836.72223,629.67428 836.23817,633.65179 C 835.09518,643.04179 830.4861,648.79455 823.09172,649.97727 C 818.28522,650.74563 817.67853,651.24591 817.67867,654.78899 L 817.67867,658.74148 L 884.01169,658.39778 L 950.30167,658.01092 L 953.35189,636.01448 C 957.17762,608.51563 957.22134,610.57505 952.75056,610.5811 C 949.5054,610.58549 948.35677,611.80272 944.54479,619.17345 C 938.62568,630.61848 932.73614,637.54392 925.81345,641.16989 C 920.88927,643.74898 917.31966,644.21283 899.82163,644.69276 C 882.72627,645.1617 878.99224,644.90791 876.10672,643.01732 L 872.66977,640.78331 L 872.66977,607.6168 L 872.66977,574.49319 L 891.10031,575.13768 C 905.59391,575.62889 910.33263,576.24974 913.22571,578.14514 C 917.60341,581.01334 920.78698,588.00862 920.78698,594.72826 C 920.78685,599.20701 921.10703,599.58288 924.91132,599.58288 L 929.03565,599.58288 L 929.03565,568.65038 L 929.03565,537.71789 L 925.12606,537.71789 C 921.45513,537.71789 921.10854,538.17445 920.44329,544.07623 C 919.65829,551.03962 916.14464,556.74453 911.03459,559.37063 C 908.92829,560.45327 901.37086,561.07632 890.19818,561.08911 L 872.66977,561.08911 L 872.66977,530.844 L 872.66977,500.5989 L 892.56101,500.5989 C 918.20048,500.5989 924.75143,501.98398 930.79701,508.67571 C 933.34599,511.49717 936.64078,516.72696 938.10052,520.2754 C 940.35295,525.75114 941.29317,526.71541 944.5019,526.71967 L 948.28253,526.71967 L 948.28253,506.78539 L 948.28253,486.85112 L 919.02548,486.85112 C 917.91164,486.85126 917.44215,485.59966 918.76771,485.04672 C 919.10054,484.90801 919.41413,484.77026 919.66984,484.61711 C 933.835,478.36022 945.88575,467.28281 953.43795,452.9113 C 974.38901,413.04124 963.15295,351.61247 930.23858,328.96672 C 927.02187,326.75374 919.51724,323.26731 913.5694,321.19057 C 902.84078,317.44485 902.44979,317.40209 860.51151,316.89439 L 818.23711,316.37885 z M 381.61632,316.59373 L 381.65935,320.37436 C 381.66568,323.12873 382.7501,324.80403 385.61184,326.43191 C 387.91982,327.74468 390.175,330.61041 391.02503,333.3058 C 391.8268,335.84803 399.3955,375.49428 407.86605,418.02632 L 419.85246,478.13008 C 419.89508,478.54939 419.95667,478.96306 420.0672,479.37577 C 420.95214,482.67812 419.36593,486.89429 415.72813,486.89429 L 390.76725,486.59335 L 390.76725,490.67493 C 390.76725,494.55042 391.07672,494.80228 397.94181,495.61533 C 406.57733,496.63816 411.49519,499.95234 413.70885,506.26985 C 416.03237,512.9015 416.03237,632.73412 413.70885,639.3655 C 411.47883,645.72976 406.09231,649.34501 397.72707,650.14912 C 391.11631,650.78413 390.76725,651.04698 390.76725,654.78899 L 390.76725,658.74148 L 433.38536,658.74148 L 476.00346,658.74148 L 476.00346,654.61714 C 476.00346,650.76804 475.65935,650.49446 470.84804,650.49281 C 463.54495,650.48951 456.49743,646.54225 453.66333,640.86937 C 451.60047,636.73967 451.25939,631.87145 451.25746,606.67178 C 451.25554,579.23988 451.41556,577.37307 453.66333,578.31699 C 468.65912,584.61402 472.85618,584.93998 485.6269,584.93297 C 502.17125,584.92335 511.34514,581.62842 521.97258,571.91548 C 532.19144,562.57606 536.76629,552.97971 537.56778,539.13583 C 538.6386,520.63531 531.08777,506.0602 515.70016,496.90418 C 512.51068,495.0063 508.6393,493.54532 504.91682,492.35023 C 504.87145,492.32246 504.83543,492.2775 504.78786,492.26431 C 500.85999,491.19047 499.78642,486.76643 500.14799,484.66027 C 500.1649,484.56198 500.17549,484.42533 500.19088,484.31658 C 501.7925,474.357 505.52351,451.46297 510.93147,418.75674 C 524.17016,338.68791 525.61863,330.10738 533.18554,326.51783 C 536.04824,325.15983 536.96632,323.74106 536.96618,320.67503 L 536.96618,316.63662 L 517.7193,316.63662 L 498.47241,316.63662 L 498.47241,320.76095 C 498.47241,323.7966 499.12268,324.88528 500.9213,324.88528 C 502.26542,324.88528 504.74002,325.85629 506.42041,327.03337 C 509.0153,328.85083 509.50156,330.45698 509.51366,337.6879 C 509.52823,346.35601 498.82779,419.60704 497.22659,421.42051 C 496.7439,421.96712 490.92296,405.99386 484.25212,385.93393 C 472.31672,350.04165 472.05482,349.47345 468.52811,349.88905 C 465.11756,350.29103 464.37903,352.07893 453.10475,386.75027 C 445.27127,410.84036 440.94457,422.25033 440.38806,420.43218 C 437.79908,411.974 425.44657,334.07457 426.16778,331.20074 C 426.74339,328.90706 428.60828,327.22914 431.88176,326.04532 C 435.92333,324.58379 436.68689,323.69294 436.34979,320.80384 L 435.92003,317.32401 L 408.76818,316.93742 L 381.61632,316.59373 z M 372.85212,316.63662 C 370.05678,316.63662 368.35893,317.74909 366.57983,320.76095 C 363.46802,326.02841 358.85867,326.15063 340.93157,321.36242 C 310.33782,313.19101 287.10944,316.73711 271.89189,331.97391 C 262.76983,341.10738 260.51451,346.85134 260.54998,360.6295 C 260.58531,374.29149 263.02307,380.22695 273.22378,391.13237 C 280.17837,398.56731 290.4217,405.1947 316.18558,419.0574 C 346.23216,435.22479 353.30457,442.56637 353.30457,457.6371 C 353.30457,471.35765 343.21123,481.17989 327.57052,482.59811 C 306.32168,484.52472 284.35769,469.63093 270.77489,444.14709 C 267.09695,437.24654 266.00248,436.24212 262.48333,436.24212 L 258.44492,436.24212 L 258.44492,465.79984 L 258.44492,495.35756 L 263.25664,495.35756 C 266.33587,495.35756 268.06836,494.67635 268.06836,493.51027 C 268.06823,490.93352 272.97453,486.66855 277.26219,485.2616 C 277.38193,485.22462 277.48875,485.20799 277.60588,485.17582 C 277.89692,485.09003 278.18301,485.01717 278.46512,484.9608 C 279.04761,484.84449 279.75535,484.78772 280.61321,484.83212 C 280.62668,484.83336 280.64277,484.83075 280.65624,484.83212 C 280.66916,484.83267 280.68607,484.83116 280.69913,484.83212 C 284.83432,485.27095 285.55567,489.70832 280.61321,492.65103 C 280.37798,492.79112 280.17905,492.94675 279.96885,493.12354 C 272.90181,497.81525 266.30865,504.65449 263.21361,510.90973 C 259.12654,519.16966 259.43517,537.63045 263.77218,545.83787 C 271.13425,559.77014 281.75771,568.04094 316.18558,586.56566 C 346.23216,602.73304 353.30457,610.07421 353.30457,625.14521 C 353.30457,638.86549 343.21123,648.64483 327.57052,650.06306 C 306.32168,651.98967 284.35769,637.13891 270.77489,611.65535 C 267.09695,604.75451 266.00248,603.70721 262.48333,603.70721 L 258.44492,603.70721 L 258.44492,633.26492 L 258.44492,662.82264 L 263.25664,662.82264 C 266.33587,662.82264 268.06836,662.18474 268.06836,661.01824 C 268.06823,658.19569 273.95186,653.32856 278.46512,652.42589 C 281.17453,651.88395 286.86721,653.07437 295.56391,655.99192 C 302.74273,658.40026 312.95485,661.1949 318.24774,662.17842 C 330.48615,664.45244 331.59766,664.46866 342.00568,662.77975 C 385.9279,655.65194 402.18478,608.8574 371.43445,578.10198 C 363.27968,569.94597 356.85466,565.84542 328.08606,550.64959 C 315.34201,543.918 302.22883,536.10307 298.95783,533.24986 C 280.92047,517.51581 293.15874,494.88326 318.72025,496.73233 C 336.19876,497.99658 354.20024,511.65706 364.38871,531.35954 C 368.46671,539.24582 369.62634,540.46304 372.89515,540.46744 L 376.67579,540.46744 L 376.67579,512.97189 L 376.67579,485.47634 L 372.89515,485.47634 C 372.78709,485.47799 372.69608,485.47992 372.59448,485.47634 C 369.90253,485.38355 369.45147,483.55592 370.87601,482.21125 C 370.98503,482.10814 371.04841,482.00929 371.13364,481.91072 C 391.26671,464.0305 393.88195,433.04508 371.43445,410.59414 C 363.27968,402.43786 356.85466,398.37965 328.08606,383.18437 C 315.34201,376.45291 302.22883,368.59537 298.95783,365.74202 C 280.92047,350.00783 293.15874,327.41859 318.72025,329.26739 C 336.19876,330.53163 354.20024,344.14922 364.38871,363.8517 C 368.46671,371.73798 369.62634,372.99823 372.89515,373.0025 L 376.67579,373.0025 L 376.67579,344.81956 L 376.67579,316.63662 L 372.85212,316.63662 z M 733.98912,330.3415 C 735.1108,330.33655 736.40502,330.38439 737.89857,330.38439 C 755.08783,330.38439 765.54604,345.29358 765.69479,365.44122 C 765.81164,381.28223 760.48466,392.47182 750.40039,397.53375 C 747.60863,398.93506 742.23778,400.40484 738.45715,400.79885 C 725.9035,402.10736 726.77154,404.61248 726.77154,367.54628 C 726.7714,335.29084 726.13639,330.37683 733.98912,330.3415 z M 599.08908,331.75917 C 599.58592,331.73319 600.12153,331.75917 600.6357,331.75917 C 617.65902,331.75917 628.72406,347.08973 632.72809,381.42301 C 634.74778,398.74094 633.67105,428.55973 630.6229,443.11601 C 627.5812,457.64177 620.00797,472.56182 613.61003,476.66924 C 598.88382,486.12235 582.28352,478.33204 574.81559,458.45344 C 569.13171,443.32333 567.57629,434.3507 567.55498,405.99716 C 567.52831,370.75336 570.86723,357.54697 581.34579,342.3708 C 586.09564,335.49183 591.63283,332.14975 599.08908,331.75917 z M 883.15245,333.47764 C 891.56636,333.30868 898.2783,336.48566 905.14889,343.83137 C 919.51476,359.18983 927.1023,390.20234 924.05208,421.03365 C 921.29964,448.85268 912.95886,466.37285 899.17713,473.40415 C 894.16552,475.96096 883.34409,476.73936 874.94668,475.12262 L 871.85343,474.52129 L 871.85343,404.62238 L 871.85343,334.68057 L 879.4576,333.73541 C 880.73614,333.57566 881.95034,333.5017 883.15245,333.47764 z M 460.83788,404.23579 C 461.00422,404.23882 461.13359,404.39856 461.26763,404.66527 C 461.81961,405.76221 468.41538,426.6371 475.91754,451.02098 L 485.58387,482.42626 C 485.58662,482.44138 485.58098,482.45362 485.58387,482.46902 C 485.62965,482.7063 485.70526,482.96916 485.79875,483.2855 C 486.51652,485.71638 484.59939,488.41507 481.15888,488.26907 C 481.14458,488.26797 481.13028,488.27044 481.11584,488.26907 C 471.75224,487.71132 458.92295,487.47279 439.91555,487.23798 L 439.09934,487.23798 L 438.9275,487.23798 C 436.29301,487.06847 435.42484,484.01633 436.04899,481.91072 C 436.05311,481.89697 436.04514,481.8813 436.04899,481.86755 L 442.06364,462.0192 C 456.94643,412.91132 459.67289,404.21421 460.83788,404.23579 z M 465.52078,500.81391 C 478.6396,500.48919 491.47631,505.84257 496.96882,516.15107 C 499.4892,520.88126 500.01106,524.16877 500.01904,534.32411 C 500.02783,545.49748 499.64537,547.39247 495.93773,554.08654 C 493.51524,558.46053 489.65253,562.94643 486.48614,565.04159 C 479.896,569.4028 462.86292,570.62374 455.72549,567.40456 L 451.25746,565.38528 L 451.25746,534.45279 C 451.25746,513.37594 451.72613,503.25785 452.76106,502.61817 C 453.5961,502.1018 458.13066,501.3652 462.85715,500.98576 C 463.75859,500.91331 464.64615,500.83536 465.52078,500.81391 z M 737.16815,503.73531 C 745.5822,503.56608 752.29414,506.74374 759.16459,514.0889 C 773.53047,529.44736 781.118,557.71018 778.06778,588.54176 C 775.31548,616.36038 766.97484,633.88124 753.19297,640.91212 C 748.18136,643.46893 737.35994,644.24788 728.96252,642.6306 L 725.86927,642.02913 L 725.86927,572.13049 L 725.86927,504.93824 L 733.47358,503.99295 C 734.75198,503.83292 735.96605,503.75937 737.16815,503.73531 z M 589.80933,543.08832 L 599.21789,568.95118 C 604.39462,583.17614 608.97868,595.89682 609.39991,597.22018 C 610.10599,599.43921 608.53682,599.62604 589.29379,599.62604 C 573.18978,599.62591 568.57933,599.23492 569.05871,597.90757 C 569.40034,596.96227 574.22183,584.24173 579.75613,569.63857 L 589.80933,543.08832 z"
         style="fill:#ffffff;stroke:#000000;stroke-width:4.81172132;stroke-linejoin:bevel;stroke-miterlimit:4;stroke-dasharray:none;stroke-dashoffset:0;stroke-opacity:1" />
      <path
         sodipodi:nodetypes="cssssssscssscccscccsssssssscccssssssccccsssssssssssssccssscccsccsscccsssscsssscccsccsscccsc"
         id="path3622"
         d="M 1039.2306,318.70786 C 1036.4291,318.78553 1033.7378,319.22505 1031.5834,320.03974 C 1024.1781,322.84016 1018.0591,330.99741 1016.8045,339.67321 C 1015.1023,351.44488 1018.4978,363.25326 1027.5879,376.87813 C 1030.763,381.63747 1033.3451,385.76456 1033.3448,386.07196 C 1033.3448,386.37949 1032.0043,386.63053 1030.3375,386.63053 C 1025.8193,386.63039 1020.5588,389.78193 1018.523,393.71916 C 1015.9673,398.66107 1017.435,404.49892 1018.6089,411.37652 C 1019.5409,416.83673 1018.6089,431.91584 1018.6089,438.22758 C 1018.4639,442.94691 1019.1245,448.11828 1019.1245,453.43605 C 1019.1245,475.9006 1019.4079,480.80265 1020.757,480.80279 C 1021.7068,480.80265 1022.9555,478.56025 1023.7214,475.51842 C 1026.3885,464.92644 1029.2862,464.18503 1066.1676,464.1765 L 1094.7802,464.13361 L 1098.6467,468.94533 C 1111.1428,484.49489 1112.034,503.92696 1100.6659,512.03594 C 1097.0352,514.62575 1096.2086,514.65654 1063.8906,514.65668 L 1030.8101,514.65668 L 1027.502,511.00486 C 1025.6002,508.87629 1023.8777,505.2275 1023.4206,502.36961 C 1022.9048,499.14314 1022.0414,497.42893 1020.8859,497.42893 C 1019.3699,497.42893 1019.1246,501.41551 1019.1245,525.3541 C 1019.1245,549.00467 1019.3789,553.27927 1020.8429,553.27927 C 1021.9056,553.27927 1022.8832,551.59352 1023.3777,548.85427 C 1025.4796,537.21046 1026.1272,537.0217 1064.8788,536.39535 C 1101.5256,535.80323 1105.1707,535.06965 1113.5974,526.64295 C 1119.6888,520.55173 1121.7584,513.8013 1121.1587,501.98288 C 1120.6172,491.29963 1117.1332,483.59606 1107.6258,472.1674 L 1100.9667,464.13361 L 1111.1486,464.13361 C 1120.9258,464.13347 1121.3306,464.03394 1121.3306,461.46998 C 1121.3306,459.36409 1111.0987,426.53578 1110.0316,425.21022 C 1109.9956,425.16554 1109.9382,425.12856 1109.8168,425.1243 C 1109.4528,425.11124 1108.7438,425.27346 1108.0124,425.55392 C 1106.6685,426.06987 1106.3946,427.59615 1106.8095,431.91226 C 1107.3009,437.02698 1106.9925,437.89708 1104.0599,440.20382 C 1100.8823,442.7033 1099.8918,442.73863 1065.8669,442.73863 L 1030.896,442.73863 L 1028.0175,439.86013 C 1023.5604,434.825 1022.8129,428.74986 1023.9791,422.41764 C 1025.7567,415.66445 1027.5152,411.99022 1030.2516,410.9898 C 1032.8944,410.0236 1033.7478,408.59122 1068.0579,408.0255 C 1101.6897,407.47119 1104.3503,407.25274 1108.2272,404.97515 C 1117.0182,399.81079 1120.1414,391.91792 1120.9869,372.36721 C 1121.0651,370.55539 1121.1224,368.77698 1121.1158,367.03995 C 1121.0156,340.98352 1111.4537,323.64867 1096.7994,323.64853 C 1090.3916,323.64853 1086.8325,327.3218 1086.8322,334.00226 C 1086.8323,341.85155 1090.5694,345.04351 1099.7208,345.04351 C 1111.4607,345.04351 1116.5655,351.24142 1116.5618,365.49332 C 1116.5597,374.45316 1113.9874,380.28937 1108.6568,383.36543 C 1103.6162,386.27419 1084.7473,387.7551 1084.0827,385.29864 C 1080.7338,372.92111 1073.6591,352.91246 1069.6475,344.44204 C 1063.1383,330.69757 1058.3848,324.30843 1052.291,321.19964 C 1048.8692,319.45395 1043.8997,318.57849 1039.2306,318.70786 z M 1047.0496,340.3606 C 1053.1068,340.18463 1058.187,343.9122 1063.547,352.00332 C 1066.4211,356.34225 1069.6927,362.01899 1070.8075,364.63409 C 1072.7396,369.16563 1078.5408,385.41316 1078.5406,386.28683 C 1078.5406,386.51505 1069.557,386.509 1058.6063,386.32973 L 1038.715,386.02906 L 1034.1611,376.96405 C 1025.7923,360.34629 1027.1578,348.44127 1038.0706,342.93831 C 1041.3427,341.2883 1044.2962,340.44062 1047.0496,340.3606 z M 1064.664,559.208 C 1046.3394,559.45147 1028.7053,567.96176 1020.3703,584.64138 C 1017.3015,590.78265 1016.7186,593.28103 1016.7186,600.62317 C 1016.7186,610.93441 1019.2576,618.51741 1025.6117,627.17356 L 1030.0367,633.14532 L 1023.3777,633.14532 C 1017.1424,633.14532 1016.7186,633.31524 1016.7186,636.02369 C 1016.7186,637.60977 1017.3628,641.20358 1020.5852,650.80255 C 1023.1769,658.52302 1026.6795,665.38426 1028.1035,660.25414 C 1029.4533,655.39101 1032.3949,655.41231 1037.8558,655.78612 C 1040.7789,655.98628 1066.2012,654.54428 1107.9265,654.54029 C 1171.4089,654.53369 1173.6151,654.42344 1173.6151,652.26325 C 1173.615,650.39094 1166.6265,629.62053 1161.8006,617.16353 C 1159.8333,612.0851 1157.6372,615.06438 1158.0199,622.27591 C 1158.2896,627.35379 1157.9518,628.4 1155.1415,630.6105 C 1152.1756,632.94364 1150.484,633.14532 1133.231,633.14532 L 1114.5426,633.14532 L 1117.5499,626.91579 C 1123.8963,613.67764 1122.1427,597.15736 1112.953,583.39556 C 1101.9828,566.96779 1082.9886,558.96452 1064.664,559.208 z M 1073.7719,581.76301 C 1099.3117,581.76315 1115.4271,593.09228 1115.4018,607.28232 C 1115.3921,612.83477 1112.9281,621.60062 1107.5828,627.51725 C 1100.4435,635.41975 1094.9836,633.22231 1065.6091,634.56299 C 1065.6091,634.56299 1043.2044,634.41218 1037.4691,633.57494 C 1033.796,629.64445 1032.3567,624.33808 1032.3567,624.33808 C 1029.171,616.44452 1027.2587,608.39424 1030.5953,602.68534 C 1038.8343,588.5885 1052.9356,581.76301 1073.7719,581.76301 z"
         style="fill:#ffffff;stroke:none;stroke-width:1.29999995;stroke-linejoin:bevel;stroke-miterlimit:4;stroke-dasharray:none;stroke-opacity:1" />
    </g>
    <rect
       style="fill:#ffffff;fill-opacity:1;fill-rule:nonzero;stroke:none;stroke-width:3;stroke-linecap:round;stroke-linejoin:round;stroke-miterlimit:4;stroke-dasharray:none;stroke-opacity:1"
       id="rect3630"
       width="588.93103"
       height="8.7466049"
       x="116.89326"
       y="-285.80576"
       transform="scale(1,-1)" />
  </g>
</svg>
