<?xml version="1.0" encoding="UTF-8" standalone="no"?>
<!-- Created with Inkscape (http://www.inkscape.org/) -->
<svg
   xmlns:dc="http://purl.org/dc/elements/1.1/"
   xmlns:cc="http://creativecommons.org/ns#"
   xmlns:rdf="http://www.w3.org/1999/02/22-rdf-syntax-ns#"
   xmlns:svg="http://www.w3.org/2000/svg"
   xmlns="http://www.w3.org/2000/svg"
   xmlns:sodipodi="http://sodipodi.sourceforge.net/DTD/sodipodi-0.dtd"
   xmlns:inkscape="http://www.inkscape.org/namespaces/inkscape"
   width="366.74088"
   height="678.25745"
   id="svg2"
   sodipodi:version="0.32"
   inkscape:version="0.46"
   version="1.0"
   sodipodi:docname="logo_icon.svg"
   inkscape:output_extension="org.inkscape.output.svg.inkscape"
   inkscape:export-filename="/home/agoebel/site.png"
   inkscape:export-xdpi="99.97683"
   inkscape:export-ydpi="99.97683">
  <defs
     id="defs4">
    <inkscape:perspective
       sodipodi:type="inkscape:persp3d"
       inkscape:vp_x="0 : 526.18109 : 1"
       inkscape:vp_y="0 : 1000 : 0"
       inkscape:vp_z="744.09448 : 526.18109 : 1"
       inkscape:persp3d-origin="372.04724 : 350.78739 : 1"
       id="perspective10" />
    <inkscape:perspective
       sodipodi:type="inkscape:persp3d"
       inkscape:vp_x="0 : 526.18109 : 1"
       inkscape:vp_y="0 : 1000 : 0"
       inkscape:vp_z="744.09448 : 526.18109 : 1"
       inkscape:persp3d-origin="372.04724 : 350.78739 : 1"
       id="perspective3243" />
    <inkscape:perspective
       id="perspective3252"
       inkscape:persp3d-origin="372.04724 : 350.78739 : 1"
       inkscape:vp_z="744.09448 : 526.18109 : 1"
       inkscape:vp_y="0 : 1000 : 0"
       inkscape:vp_x="0 : 526.18109 : 1"
       sodipodi:type="inkscape:persp3d" />
    <inkscape:perspective
       id="perspective3265"
       inkscape:persp3d-origin="372.04724 : 350.78739 : 1"
       inkscape:vp_z="744.09448 : 526.18109 : 1"
       inkscape:vp_y="0 : 1000 : 0"
       inkscape:vp_x="0 : 526.18109 : 1"
       sodipodi:type="inkscape:persp3d" />
    <mask
       maskUnits="userSpaceOnUse"
       id="mask3835">
      <path
         style="opacity:1;fill:#ffffff;fill-opacity:1;fill-rule:nonzero;stroke:#c8c8c8;stroke-width:3.79752278;stroke-linejoin:round;stroke-miterlimit:4;stroke-dasharray:none;stroke-opacity:1"
         d="M 37.8125,259.46875 L 37.8125,649.5 L 10,649.5 L 10,743.78125 L 110,743.78125 L 110,693.8125 L 337.15625,693.8125 L 337.15625,738.0625 L 438.5625,738.0625 L 438.5625,668.0625 L 414.3125,668.0625 L 414.3125,259.46875 L 37.8125,259.46875 z"
         id="path3837" />
    </mask>
    <inkscape:perspective
       id="perspective2487"
       inkscape:persp3d-origin="372.04724 : 350.78739 : 1"
       inkscape:vp_z="744.09448 : 526.18109 : 1"
       inkscape:vp_y="0 : 1000 : 0"
       inkscape:vp_x="0 : 526.18109 : 1"
       sodipodi:type="inkscape:persp3d" />
    <inkscape:perspective
       id="perspective2537"
       inkscape:persp3d-origin="372.04724 : 350.78739 : 1"
       inkscape:vp_z="744.09448 : 526.18109 : 1"
       inkscape:vp_y="0 : 1000 : 0"
       inkscape:vp_x="0 : 526.18109 : 1"
       sodipodi:type="inkscape:persp3d" />
    <clipPath
       clipPathUnits="userSpaceOnUse"
       id="clipPath3226">
      <rect
         style="opacity:1;fill:#ff0000;fill-opacity:1;fill-rule:nonzero;stroke:none;stroke-width:0.2;stroke-linejoin:round;stroke-miterlimit:4;stroke-dasharray:none;stroke-opacity:1"
         id="rect3228"
         width="420"
         height="800"
         x="120"
         y="240.00012" />
    </clipPath>
    <inkscape:perspective
       id="perspective2662"
       inkscape:persp3d-origin="372.04724 : 350.78739 : 1"
       inkscape:vp_z="744.09448 : 526.18109 : 1"
       inkscape:vp_y="0 : 1000 : 0"
       inkscape:vp_x="0 : 526.18109 : 1"
       sodipodi:type="inkscape:persp3d" />
    <inkscape:perspective
       id="perspective4201"
       inkscape:persp3d-origin="372.04724 : 350.78739 : 1"
       inkscape:vp_z="744.09448 : 526.18109 : 1"
       inkscape:vp_y="0 : 1000 : 0"
       inkscape:vp_x="0 : 526.18109 : 1"
       sodipodi:type="inkscape:persp3d" />
    <inkscape:perspective
       id="perspective4251"
       inkscape:persp3d-origin="372.04724 : 350.78739 : 1"
       inkscape:vp_z="744.09448 : 526.18109 : 1"
       inkscape:vp_y="0 : 1000 : 0"
       inkscape:vp_x="0 : 526.18109 : 1"
       sodipodi:type="inkscape:persp3d" />
    <mask
       maskUnits="userSpaceOnUse"
       id="mask4264">
      <rect
         y="1471.1647"
         x="-535.19116"
         height="588.112"
         width="656.8764"
         id="rect4266"
         style="opacity:1;fill:#ffffff;fill-opacity:1;stroke:none;stroke-width:4.14370441;stroke-miterlimit:4;stroke-dasharray:none;stroke-opacity:1" />
    </mask>
    <inkscape:perspective
       id="perspective4137"
       inkscape:persp3d-origin="372.04724 : 350.78739 : 1"
       inkscape:vp_z="744.09448 : 526.18109 : 1"
       inkscape:vp_y="0 : 1000 : 0"
       inkscape:vp_x="0 : 526.18109 : 1"
       sodipodi:type="inkscape:persp3d" />
    <inkscape:perspective
       id="perspective3698"
       inkscape:persp3d-origin="372.04724 : 350.78739 : 1"
       inkscape:vp_z="744.09448 : 526.18109 : 1"
       inkscape:vp_y="0 : 1000 : 0"
       inkscape:vp_x="0 : 526.18109 : 1"
       sodipodi:type="inkscape:persp3d" />
    <inkscape:perspective
       id="perspective3765"
       inkscape:persp3d-origin="372.04724 : 350.78739 : 1"
       inkscape:vp_z="744.09448 : 526.18109 : 1"
       inkscape:vp_y="0 : 1000 : 0"
       inkscape:vp_x="0 : 526.18109 : 1"
       sodipodi:type="inkscape:persp3d" />
    <inkscape:perspective
       id="perspective3832"
       inkscape:persp3d-origin="372.04724 : 350.78739 : 1"
       inkscape:vp_z="744.09448 : 526.18109 : 1"
       inkscape:vp_y="0 : 1000 : 0"
       inkscape:vp_x="0 : 526.18109 : 1"
       sodipodi:type="inkscape:persp3d" />
    <inkscape:perspective
       sodipodi:type="inkscape:persp3d"
       inkscape:vp_x="0 : 526.18109 : 1"
       inkscape:vp_y="0 : 1000 : 0"
       inkscape:vp_z="744.09448 : 526.18109 : 1"
       inkscape:persp3d-origin="372.04724 : 350.78739 : 1"
       id="perspective2486" />
    <inkscape:perspective
       sodipodi:type="inkscape:persp3d"
       inkscape:vp_x="0 : 526.18109 : 1"
       inkscape:vp_y="0 : 1000 : 0"
       inkscape:vp_z="744.09448 : 526.18109 : 1"
       inkscape:persp3d-origin="372.04724 : 350.78739 : 1"
       id="perspective2638" />
    <inkscape:perspective
       id="perspective2572"
       inkscape:persp3d-origin="372.04724 : 350.78739 : 1"
       inkscape:vp_z="744.09448 : 526.18109 : 1"
       inkscape:vp_y="0 : 1000 : 0"
       inkscape:vp_x="0 : 526.18109 : 1"
       sodipodi:type="inkscape:persp3d" />
  </defs>
  <sodipodi:namedview
     id="base"
     pagecolor="#000000"
     bordercolor="#666666"
     borderopacity="1.0"
     gridtolerance="10000"
     guidetolerance="10"
     objecttolerance="10"
     inkscape:pageopacity="0"
     inkscape:pageshadow="2"
     inkscape:zoom="0.35355339"
     inkscape:cx="1294.9675"
     inkscape:cy="661.59955"
     inkscape:document-units="px"
     inkscape:current-layer="layer1"
     showgrid="false"
     inkscape:snap-global="true"
     inkscape:window-width="1679"
     inkscape:window-height="974"
     inkscape:window-x="0"
     inkscape:window-y="25"
     showguides="true"
     inkscape:guide-bbox="true">
    <inkscape:grid
       type="xygrid"
       id="grid2383"
       visible="true"
       enabled="true" />
    <sodipodi:guide
       orientation="1,0"
       position="1478,672"
       id="guide4091" />
  </sodipodi:namedview>
  <metadata
     id="metadata7">
    <rdf:RDF>
      <cc:Work
         rdf:about="">
        <dc:format>image/svg+xml</dc:format>
        <dc:type
           rdf:resource="http://purl.org/dc/dcmitype/StillImage" />
      </cc:Work>
    </rdf:RDF>
  </metadata>
  <g
     inkscape:label="Layer 1"
     inkscape:groupmode="layer"
     id="layer1"
     transform="translate(382.80504,81.300423)">
    <text
       xml:space="preserve"
       style="font-size:72px;font-style:normal;font-variant:normal;font-weight:bold;font-stretch:normal;text-align:start;line-height:125%;writing-mode:lr-tb;text-anchor:start;fill:#000000;fill-opacity:1;stroke:none;stroke-width:1px;stroke-linecap:butt;stroke-linejoin:miter;stroke-opacity:1;font-family:Angsana New;-inkscape-font-specification:Angsana New Bold"
       x="-1201.6343"
       y="3115.4973"
       id="text3272"
       sodipodi:linespacing="125%"><tspan
         sodipodi:role="line"
         id="tspan3738"
         x="-1201.6343"
         y="3115.4973" /></text>
    <text
       xml:space="preserve"
       style="font-size:12px;font-style:normal;font-variant:normal;font-weight:bold;font-stretch:normal;text-align:start;line-height:125%;writing-mode:lr-tb;text-anchor:start;fill:#000000;fill-opacity:1;stroke:none;stroke-width:1px;stroke-linecap:butt;stroke-linejoin:miter;stroke-opacity:1;font-family:Angsana New;-inkscape-font-specification:Angsana New Bold"
       x="-1504.9685"
       y="1453.7135"
       id="text2560"
       sodipodi:linespacing="125%"><tspan
         y="1453.7135"
         x="-1504.9685"
         sodipodi:role="line"
         id="tspan2562" /></text>
    <text
       xml:space="preserve"
       style="font-size:14px;font-style:normal;font-weight:normal;fill:#000000;fill-opacity:1;stroke:none;stroke-width:1px;stroke-linecap:butt;stroke-linejoin:miter;stroke-opacity:1;font-family:Bitstream Vera Sans"
       x="75.618614"
       y="390.12131"
       id="text4100"
       transform="translate(-411.39294,-29.900417)"><tspan
         sodipodi:role="line"
         id="tspan4102"
         x="75.618614"
         y="390.12131" /></text>
    <text
       xml:space="preserve"
       style="font-size:14px;font-style:normal;font-weight:normal;fill:#000000;fill-opacity:1;stroke:none;stroke-width:1px;stroke-linecap:butt;stroke-linejoin:miter;stroke-opacity:1;font-family:Bitstream Vera Sans"
       x="80.34478"
       y="399.57364"
       id="text4120"
       transform="translate(-411.39294,-29.900417)"><tspan
         sodipodi:role="line"
         id="tspan4122"
         x="80.34478"
         y="399.57364" /></text>
    <path
       style="opacity:1;fill:#00ff00;fill-opacity:1;fill-rule:evenodd;stroke:none;stroke-width:1px;stroke-linecap:butt;stroke-linejoin:miter;stroke-opacity:1"
       d="M 567.53125,246.84375 C 567.53134,246.84374 536.80235,247.9476 532.34375,247.96875 C 521.08065,248.0236 516.0785,250.49758 514.75,254.8125 C 511.52392,265.28981 500.0393,286.95861 514.125,307.0625 C 519.0855,314.14228 522.7714,311.76925 509.8125,333.0625 C 506.3824,338.69526 445.2848,459.08321 435.8125,477.75 C 426.291,496.51362 409.94627,529.85439 403.9375,541.75 C 396.58127,556.31324 396.78019,560.91739 363.78125,560.34375 C 355.73708,560.20258 346.60034,560.35458 339.40625,560.53125 L 339.40625,684.15625 L 352.34375,684.15625 C 388.28278,673.29546 431.03266,650.11846 446.09375,625.8125 C 465.93927,593.78531 480.59365,560.90625 480.59375,560.90625 C 480.59375,560.90625 460.6566,560.05832 444.09375,560.34375 C 410.49609,560.91738 415.46858,556.31319 423.3125,541.75 C 429.71954,529.85444 448.21839,496.51361 458.28125,477.75 C 468.29211,459.08323 532.89485,338.69524 535.34375,333.0625 C 544.60963,311.76927 545.7751,314.1423 558.125,307.0625 C 593.19393,286.95859 604.2904,265.28981 612,254.8125 C 615.17499,250.49758 612.79965,248.02361 601.59375,247.96875 C 597.15734,247.9476 567.53145,246.84375 567.53125,246.84375 z M 523.15625,262.03125 C 531.33278,262.28155 559.5001,262.2813 559.5,262.28125 C 559.50002,262.28129 587.65605,262.28154 596.09375,262.03125 C 597.26297,261.99659 592.8241,270.27377 580.75,283.15625 C 573.94031,290.4218 559.02005,298.43276 550.09375,303.5625 C 542.24534,308.07282 537.60005,310.40047 533.90625,315.28125 C 533.21754,316.19356 531.15635,316.59375 531.15625,316.59375 C 531.15628,316.59374 529.4867,316.19357 529.75,315.28125 C 531.15073,310.40046 528.92215,308.07281 525.78125,303.5625 C 522.20904,298.43278 515.6637,290.4218 516.4375,283.15625 C 517.80918,270.27377 522.02305,261.99659 523.15625,262.03125 z"
       transform="translate(-629.35791,-87.210411)"
       id="path3862" />
    <path
       style="opacity:1;fill:#ff0000;fill-opacity:1;fill-rule:evenodd;stroke:none;stroke-width:1px;stroke-linecap:butt;stroke-linejoin:miter;stroke-opacity:1"
       d="M -290.5028,-81.292956 C -299.746,-80.774056 -308.09,-72.316456 -314.2215,-64.042956 C -323.40911,-51.667956 -313.8772,-53.452956 -309.3465,-50.667956 C -297.6675,-43.488656 -301.2865,17.366044 -303.1591,20.707044 C -303.8658,21.967944 -304.8042,22.701944 -304.8465,25.957044 C -304.9329,32.723944 -304.327,38.182944 -303.7215,61.363244 C -307.9786,65.310844 -313.1247,68.762444 -318.2215,68.832044 C -340.65081,69.138344 -359.41091,71.777444 -380.22151,84.082044 C -390.17621,89.967844 -368.25201,108.67804 -366.84651,98.582044 C -366.08391,93.103044 -335.49431,76.176144 -310.4091,87.582044 C -309.5668,95.940744 -313.461,99.332244 -313.3465,105.92584 C -312.6303,147.20954 -307.3047,310.23424 -307.0028,349.30084 C -306.8057,374.82304 -307.661,500.97234 -302.1591,596.95703 L -277.0028,596.95703 C -271.5008,500.97234 -272.3873,374.82304 -272.1903,349.30084 C -271.8885,310.23434 -266.5629,147.20954 -265.8465,105.92584 C -265.7319,99.316444 -269.6512,95.912544 -268.7841,87.519544 C -243.7227,76.214844 -213.233,93.112344 -212.4715,98.582044 C -211.0662,108.67804 -189.1419,89.967844 -199.0965,84.082044 C -219.9073,71.777444 -238.6674,69.138344 -261.0965,68.832044 C -266.1423,68.763144 -271.2396,65.385744 -275.4715,61.488244 C -274.865,38.275344 -274.26,32.742044 -274.3465,25.957044 C -274.3889,22.701944 -275.3274,21.967944 -276.0341,20.707044 C -277.9066,17.366044 -281.5257,-43.488656 -269.8465,-50.667956 C -265.316,-53.452956 -255.7841,-51.667956 -264.9715,-64.042956 C -271.301,-72.583356 -279.7215,-81.292956 -289.5965,-81.292956 C -289.9052,-81.292956 -290.2047,-81.309756 -290.5028,-81.292956 z"
       id="path4078" />
  </g>
</svg>
