<?xml version="1.0" encoding="UTF-8" standalone="no"?>
<!-- Created with Inkscape (http://www.inkscape.org/) -->
<svg
   xmlns:dc="http://purl.org/dc/elements/1.1/"
   xmlns:cc="http://creativecommons.org/ns#"
   xmlns:rdf="http://www.w3.org/1999/02/22-rdf-syntax-ns#"
   xmlns:svg="http://www.w3.org/2000/svg"
   xmlns="http://www.w3.org/2000/svg"
   xmlns:sodipodi="http://sodipodi.sourceforge.net/DTD/sodipodi-0.dtd"
   xmlns:inkscape="http://www.inkscape.org/namespaces/inkscape"
   width="815.46301"
   height="400.76758"
   id="svg2564"
   sodipodi:version="0.32"
   inkscape:version="0.46"
   sodipodi:docname="sas_fonts.svg"
   inkscape:output_extension="org.inkscape.output.svg.inkscape"
   version="1.0">
  <defs
     id="defs2566">
    <inkscape:perspective
       sodipodi:type="inkscape:persp3d"
       inkscape:vp_x="0 : 526.18109 : 1"
       inkscape:vp_y="0 : 1000 : 0"
       inkscape:vp_z="744.09448 : 526.18109 : 1"
       inkscape:persp3d-origin="372.04724 : 350.78739 : 1"
       id="perspective2572" />
    <inkscape:perspective
       id="perspective2638"
       inkscape:persp3d-origin="372.04724 : 350.78739 : 1"
       inkscape:vp_z="744.09448 : 526.18109 : 1"
       inkscape:vp_y="0 : 1000 : 0"
       inkscape:vp_x="0 : 526.18109 : 1"
       sodipodi:type="inkscape:persp3d" />
    <inkscape:perspective
       id="perspective2486"
       inkscape:persp3d-origin="372.04724 : 350.78739 : 1"
       inkscape:vp_z="744.09448 : 526.18109 : 1"
       inkscape:vp_y="0 : 1000 : 0"
       inkscape:vp_x="0 : 526.18109 : 1"
       sodipodi:type="inkscape:persp3d" />
  </defs>
  <sodipodi:namedview
     id="base"
     pagecolor="#000000"
     bordercolor="#666666"
     borderopacity="1.0"
     gridtolerance="10000"
     guidetolerance="10"
     objecttolerance="10"
     inkscape:pageopacity="1"
     inkscape:pageshadow="2"
     inkscape:zoom="0.22627417"
     inkscape:cx="441.9417"
     inkscape:cy="805.1685"
     inkscape:document-units="px"
     inkscape:current-layer="layer1"
     showgrid="false"
     inkscape:window-width="1130"
     inkscape:window-height="971"
     inkscape:window-x="0"
     inkscape:window-y="25"
     showguides="true"
     inkscape:guide-bbox="true">
    <sodipodi:guide
       orientation="0,1"
       position="540.67152,110.83899"
       id="guide2405" />
    <sodipodi:guide
       orientation="0,1"
       position="550.21747,121.26881"
       id="guide2407" />
    <sodipodi:guide
       orientation="0,1"
       position="568.69063,81.140503"
       id="guide3181" />
    <sodipodi:guide
       orientation="1,0"
       position="33.057242,88.918678"
       id="guide3183" />
  </sodipodi:namedview>
  <metadata
     id="metadata2569">
    <rdf:RDF>
      <cc:Work
         rdf:about="">
        <dc:format>image/svg+xml</dc:format>
        <dc:type
           rdf:resource="http://purl.org/dc/dcmitype/StillImage" />
      </cc:Work>
    </rdf:RDF>
  </metadata>
  <g
     inkscape:label="Layer 1"
     inkscape:groupmode="layer"
     id="layer1"
     transform="translate(631.23035,-1274.6656)">
    <g
       id="g3880"
       transform="translate(1386.0443,961.82409)" />
    <g
       id="g3174"
       transform="translate(-6.9826795,1.3234888)">
      <path
         id="path2510"
         d="M -590.75773,1660.6883 C -590.75773,1647.4186 -590.74603,1647.2686 -589.72493,1647.4282 C -588.93053,1647.5524 -588.40093,1648.464 -587.43033,1651.3782 C -583.62023,1662.817 -576.01073,1668.5786 -564.70143,1668.5881 C -559.43533,1668.5925 -556.01243,1667.5997 -553.33873,1665.2926 C -550.83833,1663.1347 -549.57293,1660.1372 -549.57043,1656.3642 C -549.56573,1648.834 -554.27633,1644.2351 -572.71853,1633.7657 C -581.61133,1628.7177 -585.07253,1626.0037 -587.72533,1621.9989 C -592.89923,1614.1881 -592.16093,1605.3574 -585.79763,1598.9425 C -578.63633,1591.7233 -567.44963,1589.8929 -555.54663,1593.9929 C -548.38733,1596.4591 -547.42023,1596.4099 -545.62953,1593.4892 C -545.02383,1592.5013 -544.16773,1591.7713 -543.61493,1591.7713 C -542.69243,1591.7713 -542.65363,1592.2906 -542.65363,1604.6524 C -542.65363,1617.1124 -542.68573,1617.5336 -543.63653,1617.5336 C -544.37453,1617.5336 -544.75363,1616.9984 -545.15743,1615.3868 C -547.35963,1606.5993 -552.38963,1600.4368 -559.36183,1597.9841 C -563.23273,1596.6224 -571.27143,1596.7318 -573.97143,1598.1828 C -578.03243,1600.3652 -580.74743,1604.4315 -580.72503,1608.2985 C -580.69573,1613.4064 -576.90673,1617.2475 -565.15483,1624.0831 C -545.93533,1635.2629 -540.31083,1640.3966 -538.30523,1648.5896 C -536.15183,1657.3858 -541.02343,1666.8036 -549.91923,1671.0429 C -554.21233,1673.0887 -557.58423,1673.7442 -563.64643,1673.7122 C -568.19593,1673.6879 -569.84083,1673.4262 -575.07973,1671.8933 C -584.07373,1669.2616 -585.90503,1669.3303 -587.76713,1672.3678 C -588.38423,1673.3741 -589.24113,1674.1097 -589.79653,1674.1097 C -590.71993,1674.1097 -590.75773,1673.5828 -590.75773,1660.6883 z"
         style="fill:#ffffff;stroke:none;stroke-width:0.5;stroke-linecap:round;stroke-linejoin:round;stroke-miterlimit:4;stroke-dasharray:none;stroke-opacity:1" />
      <path
         id="path2508"
         d="M -57.981796,1591.8957 C -60.538896,1591.8673 -63.107796,1592.2379 -65.669196,1593.0207 C -75.022496,1595.8793 -84.224396,1605.4006 -87.888096,1616.0207 C -90.626196,1623.9575 -91.410296,1634.7703 -89.794296,1642.677 C -86.406296,1659.2533 -74.632296,1671.9185 -61.106896,1673.5207 C -54.181396,1674.3413 -48.445096,1672.8992 -42.606896,1668.8957 C -35.487396,1664.0141 -29.452596,1655.091 -26.856896,1645.5833 C -25.346796,1640.052 -25.226796,1626.2163 -26.638096,1620.802 C -31.142896,1603.5206 -44.173696,1592.0495 -57.981796,1591.8957 z M -58.263096,1596.7395 C -50.144696,1596.6923 -43.792296,1603.6006 -41.013096,1615.5207 C -35.578996,1638.8262 -41.479996,1664.1813 -53.294296,1668.2395 C -55.974196,1669.1601 -60.006196,1669.238 -62.263096,1668.427 C -71.530996,1665.0965 -77.044296,1651.7652 -77.044296,1632.677 C -77.044296,1610.5624 -69.846196,1596.8067 -58.263096,1596.7395 z"
         style="fill:#ffffff;stroke:none;stroke-width:0.5;stroke-linecap:round;stroke-linejoin:round;stroke-miterlimit:4;stroke-dasharray:none;stroke-opacity:1" />
      <path
         id="path2504"
         d="M 22.030908,1660.6883 C 22.030908,1647.4186 22.042608,1647.2686 23.063808,1647.4282 C 23.858108,1647.5524 24.387808,1648.464 25.358408,1651.3782 C 29.168708,1662.817 36.777808,1668.5786 48.087108,1668.5881 C 53.353208,1668.5925 56.776208,1667.5997 59.449608,1665.2926 C 61.950308,1663.1347 63.215508,1660.1372 63.218008,1656.3642 C 63.222908,1648.834 58.512208,1644.2351 40.069908,1633.7657 C 31.177208,1628.7177 27.716208,1626.0037 25.063308,1621.9989 C 19.889408,1614.1881 20.627808,1605.3574 26.991108,1598.9425 C 34.152108,1591.7233 45.339108,1589.8929 57.241808,1593.9929 C 64.401208,1596.4591 65.368408,1596.4099 67.159008,1593.4892 C 67.764808,1592.5013 68.620708,1591.7713 69.173508,1591.7713 C 70.096208,1591.7713 70.134908,1592.2906 70.134908,1604.6524 C 70.134908,1617.1124 70.102608,1617.5336 69.151908,1617.5336 C 68.414108,1617.5336 68.035208,1616.9984 67.630908,1615.3868 C 65.428908,1606.5993 60.399008,1600.4368 53.426608,1597.9841 C 49.555908,1596.6224 41.517108,1596.7318 38.817308,1598.1828 C 34.756108,1600.3652 32.041408,1604.4315 32.063508,1608.2985 C 32.093008,1613.4064 35.881708,1617.2475 47.633408,1624.0831 C 66.853208,1635.2629 72.477808,1640.3966 74.483308,1648.5896 C 76.636408,1657.3858 71.765208,1666.8036 62.869008,1671.0429 C 58.576208,1673.0887 55.204308,1673.7442 49.142108,1673.7122 C 44.592608,1673.6879 42.947708,1673.4262 37.708708,1671.8933 C 28.715008,1669.2616 26.883708,1669.3303 25.021408,1672.3678 C 24.404408,1673.3741 23.547608,1674.1097 22.992308,1674.1097 C 22.068608,1674.1097 22.030908,1673.5828 22.030908,1660.6883 z"
         style="fill:#ffffff;stroke:none;stroke-width:0.5;stroke-linecap:round;stroke-linejoin:round;stroke-miterlimit:4;stroke-dasharray:none;stroke-opacity:1" />
      <path
         id="path2502"
         d="M -367.08401,1672.8428 C -374.52601,1671.2122 -380.98691,1666.4913 -383.87961,1660.5694 L -385.52031,1657.2112 L -385.77091,1628.6587 C -385.99351,1603.2799 -386.11411,1599.9357 -386.85551,1598.5729 C -387.76151,1596.9075 -389.12221,1596.0508 -391.65851,1595.5492 C -392.81961,1595.3194 -393.28721,1594.9486 -393.28721,1594.2569 C -393.28721,1593.3245 -392.76981,1593.2867 -380.00831,1593.2867 C -367.49161,1593.2867 -366.72971,1593.3396 -366.72971,1594.2079 C -366.72971,1594.8682 -367.40151,1595.3334 -369.10021,1595.8497 C -372.45951,1596.8707 -373.56061,1598.7128 -374.00141,1604.0479 C -374.19131,1606.3456 -374.24631,1618.7874 -374.12341,1631.6962 C -373.92941,1652.1113 -373.78811,1655.5183 -373.03761,1657.8668 C -370.76291,1664.9835 -362.25271,1669.1671 -352.46661,1667.9793 C -346.15241,1667.213 -341.90451,1664.3236 -339.57071,1659.208 C -338.41931,1656.6838 -338.41851,1656.6666 -338.27301,1628.9747 C -338.13041,1601.7969 -338.14751,1601.2258 -339.16911,1599.0983 C -340.22291,1596.9036 -341.28851,1596.2021 -344.55681,1595.5514 C -345.71721,1595.3203 -346.18541,1594.9482 -346.18541,1594.2569 C -346.18541,1593.3309 -345.70621,1593.2867 -335.66251,1593.2867 C -325.49491,1593.2867 -325.14001,1593.3207 -325.14001,1594.2911 C -325.14001,1595.076 -325.58821,1595.3676 -327.19061,1595.626 C -329.81611,1596.0492 -331.98651,1597.897 -332.63871,1600.2649 C -332.95671,1601.4191 -333.15611,1611.823 -333.16301,1627.6365 C -333.17551,1654.841 -333.36631,1657.4486 -335.68071,1662.022 C -336.28291,1663.2117 -337.90961,1665.3944 -339.29591,1666.8721 C -343.74571,1671.6148 -349.50841,1673.6293 -358.44181,1673.5645 C -361.48441,1673.5424 -365.37331,1673.2175 -367.08401,1672.8428 z"
         style="fill:#ffffff;stroke:none;stroke-width:0.5;stroke-linecap:round;stroke-linejoin:round;stroke-miterlimit:4;stroke-dasharray:none;stroke-opacity:1" />
      <path
         id="path2500"
         d="M -483.09435,1671.1685 C -483.09435,1670.4195 -482.45405,1670.148 -479.65805,1669.7118 C -475.74045,1669.1006 -473.89185,1668.0724 -472.67145,1665.8261 C -471.89915,1664.4052 -471.80675,1661.1888 -471.67745,1631.241 L -471.53475,1598.2225 L -478.44215,1598.4336 C -484.22365,1598.61 -485.67585,1598.8172 -487.35355,1599.705 C -490.74915,1601.5017 -492.94605,1604.5068 -493.85715,1608.6004 C -494.32115,1610.6866 -494.66385,1611.2524 -495.54045,1611.3819 C -496.58175,1611.5357 -496.62725,1611.4 -496.38845,1608.856 C -496.24985,1607.3777 -495.99785,1603.2696 -495.82845,1599.7273 L -495.52035,1593.2867 L -465.56995,1593.2867 L -435.61995,1593.2867 L -435.28375,1600.9901 C -435.09865,1605.2269 -434.82665,1609.3188 -434.67875,1610.0828 C -434.44425,1611.2942 -434.56695,1611.4718 -435.63835,1611.4718 C -436.68815,1611.4718 -436.91445,1611.1721 -437.19395,1609.4095 C -437.75245,1605.8887 -439.79615,1602.4882 -442.32615,1600.8708 C -445.30855,1598.9642 -448.39975,1598.3381 -454.83475,1598.3381 L -460.09815,1598.3381 L -459.94605,1631.0462 C -459.79515,1663.5245 -459.78645,1663.7686 -458.70395,1665.8073 C -457.45465,1668.1603 -455.26725,1669.3273 -451.15045,1669.8375 C -449.00995,1670.1025 -448.51975,1670.3428 -448.51975,1671.1261 C -448.51975,1672.0547 -449.13755,1672.0892 -465.80695,1672.0892 C -482.19875,1672.0892 -483.09435,1672.0415 -483.09435,1671.1685 z"
         style="fill:#ffffff;stroke:none;stroke-width:0.5;stroke-linecap:round;stroke-linejoin:round;stroke-miterlimit:4;stroke-dasharray:none;stroke-opacity:1" />
      <path
         id="path2498"
         d="M -277.25487,1593.302 C -283.47987,1593.3562 -283.84867,1593.5552 -283.84867,1594.2395 C -283.84867,1594.9769 -283.34947,1595.2657 -281.66117,1595.5207 C -280.46137,1595.7022 -278.97057,1596.3426 -278.34867,1596.927 C -275.81307,1599.3081 -275.81447,1599.141 -275.81747,1632.302 C -275.81897,1651.1325 -276.01627,1663.9589 -276.31747,1665.052 C -276.99527,1667.5115 -279.14027,1669.3787 -281.72367,1669.802 C -283.36567,1670.0711 -283.84867,1670.3696 -283.84867,1671.1145 C -283.84867,1672.0428 -283.29837,1672.087 -269.69247,1672.0833 C -261.90687,1672.0813 -253.67317,1671.8767 -251.41107,1671.6145 C -240.70827,1670.3739 -230.53007,1663.0968 -225.75487,1653.302 C -215.81757,1632.9178 -223.27597,1605.2605 -241.00487,1596.7395 C -247.17477,1593.7741 -251.20517,1593.3021 -268.87977,1593.302 C -272.46297,1593.302 -275.17997,1593.2839 -277.25487,1593.302 z M -259.47367,1598.2083 C -256.85827,1598.2063 -253.76857,1598.5031 -252.37977,1599.0207 C -245.27697,1601.6688 -239.12417,1610.35 -236.19247,1621.8333 C -234.56297,1628.2146 -234.54247,1640.0914 -236.16117,1646.052 C -238.87457,1656.0444 -244.44457,1663.4477 -251.16117,1666.0207 C -253.51407,1666.9219 -258.99777,1667.743 -260.03617,1667.3333 C -260.31167,1667.2243 -261.37787,1666.9764 -262.41107,1666.802 L -264.31747,1666.4895 L -264.31747,1632.7083 L -264.31747,1598.927 L -263.19247,1598.552 C -262.43557,1598.3098 -261.04277,1598.2094 -259.47367,1598.2083 z"
         style="fill:#ffffff;stroke:none;stroke-width:0.5;stroke-linecap:round;stroke-linejoin:round;stroke-miterlimit:4;stroke-dasharray:none;stroke-opacity:1" />
      <path
         id="path2492"
         d="M -180.02345,1671.1283 C -180.02345,1670.2411 -179.51355,1670.1542 -173.36095,1669.9919 C -165.95935,1669.7965 -164.72855,1669.3649 -163.12235,1666.4014 C -162.29955,1664.8837 -162.23495,1662.4277 -162.23495,1632.6881 C -162.23495,1597.6363 -162.13545,1598.8682 -165.15215,1596.6155 C -166.38695,1595.6937 -167.41835,1595.5376 -173.29485,1595.3839 C -179.51255,1595.2215 -180.02345,1595.1352 -180.02345,1594.2475 C -180.02345,1593.3166 -179.27585,1593.2867 -155.97135,1593.2867 C -132.25365,1593.2867 -131.91955,1593.3008 -131.91955,1594.297 C -131.91955,1595.251 -132.25365,1595.3073 -137.92225,1595.3073 C -145.48505,1595.3073 -147.45905,1595.978 -148.93365,1599.0485 C -149.93235,1601.1288 -149.95835,1601.9809 -149.95765,1632.7212 C -149.95685,1661.7488 -149.88715,1664.3973 -149.08065,1665.9915 C -147.39005,1669.334 -146.18125,1669.7962 -138.64935,1669.9814 C -132.40085,1670.1351 -131.91955,1670.2163 -131.91955,1671.118 C -131.91955,1672.0626 -132.57665,1672.0892 -155.97135,1672.0892 C -179.27585,1672.0892 -180.02345,1672.0592 -180.02345,1671.1283 z"
         style="fill:#ffffff;stroke:none;stroke-width:0.5;stroke-linecap:round;stroke-linejoin:round;stroke-miterlimit:4;stroke-dasharray:none;stroke-opacity:1" />
    </g>
    <path
       style="fill:#ffffff;stroke:#000000;stroke-width:3.5;stroke-linejoin:bevel;stroke-miterlimit:4;stroke-dasharray:none;stroke-dashoffset:0;stroke-opacity:1"
       d="M -192.52184,1276.4156 L -192.52184,1279.3219 C -192.52184,1281.9227 -192.04704,1282.3911 -187.83434,1283.6656 C -184.24714,1284.7508 -182.63304,1287.94 -181.08434,1290.6031 C -179.11554,1293.9884 -179.02184,1295.6432 -179.02184,1341.1031 C -179.02184,1379.0306 -178.50194,1387.5974 -183.02184,1390.1655 C -196.95762,1398.0841 -211.24372,1375.8549 -216.95932,1366.728 C -230.40242,1345.3299 -231.06102,1343.6602 -226.27182,1343.6031 C -223.32002,1343.5679 -215.17832,1338.4429 -211.17802,1334.1031 C -205.30372,1327.7301 -202.82302,1321.7085 -202.30302,1312.6031 C -201.25682,1294.2788 -212.20812,1280.2041 -232.24062,1277.6031 C -236.27692,1277.079 -252.94062,1276.6513 -269.30302,1276.6343 L -299.05302,1276.6031 L -299.05302,1279.4781 C -299.05312,1281.9713 -298.61132,1282.4592 -295.67802,1283.0093 C -290.61672,1283.9589 -287.45522,1288.9376 -286.17802,1294.0093 C -284.65332,1300.0651 -284.65622,1382.5195 -286.17802,1388.103 C -287.64082,1393.4693 -290.66972,1396.4922 -295.27182,1397.228 C -298.65722,1397.7694 -298.64682,1400.9512 -298.64682,1402.0093 C -298.64682,1404.0519 -297.97092,1406.3144 -294.02182,1407.5093 C -290.43462,1408.5944 -288.82052,1409.7838 -287.27182,1412.4469 C -285.30302,1415.832 -285.20932,1417.4869 -285.20932,1462.9469 C -285.20932,1508.3706 -284.74212,1508.7091 -285.55302,1511.478 C -286.65882,1515.2533 -288.97172,1517.5095 -295.08432,1517.6655 C -302.29462,1517.8471 -305.12162,1513.8569 -307.83432,1507.4155 C -309.28762,1503.9649 -318.54412,1479.772 -328.92802,1451.4469 C -333.61582,1438.66 -337.13632,1429.1065 -339.83432,1421.8843 C -339.87612,1421.7729 -339.91702,1421.6216 -339.95932,1421.5093 C -341.47422,1417.4565 -342.66352,1414.3111 -343.70932,1411.6343 C -343.74712,1411.5374 -343.76572,1411.4792 -343.80302,1411.3843 C -344.64182,1408.6451 -344.32592,1406.541 -341.52182,1405.9155 C -338.19212,1405.1728 -336.03552,1404.6427 -331.99062,1402.6655 C -314.19472,1393.9666 -300.54812,1371.2761 -298.86562,1347.5719 C -297.67122,1330.7442 -302.19142,1312.9015 -310.99062,1299.6656 C -320.97472,1284.6474 -336.05272,1276.5542 -351.39682,1276.6343 C -359.43412,1276.6762 -367.53962,1278.975 -375.02182,1283.6656 C -382.21822,1288.177 -386.17512,1292.127 -391.58432,1300.3219 C -406.55222,1322.9996 -407.26952,1356.3226 -393.30302,1380.103 C -385.76272,1391.7523 -374.65842,1403.6715 -359.89682,1405.978 C -357.20352,1406.3688 -357.08972,1408.1779 -357.80302,1410.5719 L -374.45932,1455.1343 C -385.91922,1485.8237 -396.41762,1512.4525 -397.80302,1514.3219 C -399.18862,1516.1911 -401.61852,1518.2019 -403.17802,1518.7905 C -405.35572,1519.6126 -405.99062,1520.53 -405.99062,1522.6655 L -405.99062,1525.4469 L -390.49062,1525.4469 L -374.99062,1525.4469 L -374.99062,1522.4469 C -374.99062,1520.1422 -375.46572,1519.4468 -376.95932,1519.4469 C -378.02862,1519.4468 -380.11672,1518.3924 -381.61562,1517.103 C -384.26232,1514.8265 -384.29702,1514.6033 -383.24062,1509.353 C -382.64242,1506.3799 -381.20622,1501.3593 -380.02182,1498.1969 L -377.86562,1492.4469 L -359.02182,1492.4469 L -340.17802,1492.4469 L -337.08432,1501.6969 C -335.38892,1506.7857 -333.99062,1512.1543 -333.99062,1513.6343 C -333.99062,1516.5122 -337.15522,1519.4469 -340.24062,1519.4469 C -341.54902,1519.4468 -341.99062,1520.2386 -341.99062,1522.4469 L -341.99062,1525.4469 L -318.99062,1525.4469 L -298.70932,1525.4469 L -295.99062,1525.4469 L -272.30302,1525.4469 C -257.76792,1525.4468 -242.35542,1524.9537 -238.05302,1524.3843 C -222.19332,1522.2847 -208.08132,1512.255 -200.36562,1497.5719 C -185.12594,1468.5705 -193.29894,1425.8878 -217.24062,1409.4155 C -219.58032,1407.8057 -225.03922,1405.2696 -229.36562,1403.7593 C -234.86332,1401.8398 -236.94852,1402.0215 -248.05302,1400.9469 C -251.94052,1400.5706 -256.13992,1398.3877 -257.77182,1394.5093 C -259.02722,1391.5253 -258.58052,1388.9745 -258.86562,1368.9155 C -259.11242,1351.5466 -258.91902,1347.4525 -257.86562,1347.7906 C -257.14742,1348.0211 -244.05902,1365.9679 -233.36562,1379.5719 C -218.52002,1398.4579 -207.25752,1403.0957 -190.55304,1407.4155 C -183.79744,1409.1626 -181.73514,1414.4499 -180.42804,1418.9469 C -179.48044,1422.2078 -179.03444,1421.257 -179.08434,1458.2593 C -179.11654,1482.2828 -179.07594,1504.3037 -179.42804,1507.1969 C -180.25944,1514.0271 -183.61204,1518.2116 -188.99064,1519.0719 C -192.48684,1519.6308 -192.92814,1519.9947 -192.92804,1522.5719 L -192.92804,1525.4469 L -144.67804,1525.1969 L -96.45934,1524.9155 L -94.24064,1508.9155 C -91.45784,1488.9131 -91.42604,1490.4111 -94.67804,1490.4155 C -97.03854,1490.4187 -97.87404,1491.3041 -100.64684,1496.6655 C -104.95234,1504.9905 -109.23634,1510.028 -114.27184,1512.6655 C -117.85364,1514.5415 -120.45014,1514.8789 -133.17804,1515.228 C -145.61304,1515.5691 -148.32914,1515.3845 -150.42804,1514.0093 L -152.92804,1512.3843 L -152.92804,1488.2593 L -152.92804,1464.1655 L -139.52184,1464.6343 C -128.97934,1464.9916 -125.53244,1465.4432 -123.42804,1466.8219 C -120.24374,1468.9082 -117.92804,1473.9965 -117.92804,1478.8843 C -117.92814,1482.1421 -117.69524,1482.4155 -114.92804,1482.4155 L -111.92804,1482.4155 L -111.92804,1459.9155 L -111.92804,1437.4155 L -114.77184,1437.4155 C -117.44204,1437.4155 -117.69414,1437.7476 -118.17804,1442.0405 C -118.74904,1447.1056 -121.30484,1451.2553 -125.02184,1453.1655 C -126.55394,1453.953 -132.05114,1454.4062 -140.17804,1454.4155 L -152.92804,1454.4155 L -152.92804,1432.4155 L -152.92804,1410.4155 L -138.45934,1410.4155 C -119.80944,1410.4155 -115.04434,1411.423 -110.64684,1416.2905 C -108.79274,1418.3428 -106.39614,1422.1469 -105.33434,1424.728 C -103.69594,1428.711 -103.01204,1429.4124 -100.67804,1429.4155 L -97.92804,1429.4155 L -97.92804,1414.9155 L -97.92804,1400.4155 L -119.20934,1400.4155 C -120.01954,1400.4156 -120.36104,1399.5052 -119.39684,1399.103 C -119.15474,1399.0021 -118.92664,1398.9019 -118.74064,1398.7905 C -108.43704,1394.2393 -99.67144,1386.1817 -94.17804,1375.728 C -78.93844,1346.7269 -87.11144,1302.0442 -111.05304,1285.5719 C -113.39284,1283.9622 -118.85164,1281.4262 -123.17804,1279.9156 C -130.98194,1277.191 -131.26634,1277.1599 -161.77184,1276.7906 L -192.52184,1276.4156 z M -510.11562,1276.5719 L -510.08432,1279.3219 C -510.07972,1281.3254 -509.29092,1282.544 -507.20932,1283.7281 C -505.53052,1284.683 -503.89012,1286.7675 -503.27182,1288.7281 C -502.68862,1290.5773 -497.18322,1319.4156 -491.02182,1350.353 L -482.30302,1394.0719 C -482.27202,1394.3769 -482.22722,1394.6778 -482.14682,1394.978 C -481.50312,1397.3801 -482.65692,1400.4469 -485.30302,1400.4469 L -503.45932,1400.228 L -503.45932,1403.1969 C -503.45932,1406.0159 -503.23422,1406.1991 -498.24062,1406.7905 C -491.95922,1407.5345 -488.38202,1409.9452 -486.77182,1414.5405 C -485.08172,1419.3643 -485.08172,1506.5294 -486.77182,1511.353 C -488.39392,1515.9823 -492.31202,1518.612 -498.39682,1519.1969 C -503.20542,1519.6588 -503.45932,1519.85 -503.45932,1522.5719 L -503.45932,1525.4469 L -472.45932,1525.4469 L -441.45932,1525.4469 L -441.45932,1522.4469 C -441.45932,1519.6471 -441.70962,1519.4481 -445.20932,1519.4469 C -450.52152,1519.4445 -455.64782,1516.5733 -457.70932,1512.4469 C -459.20982,1509.443 -459.45792,1505.9019 -459.45932,1487.5719 C -459.46072,1467.6182 -459.34432,1466.2603 -457.70932,1466.9469 C -446.80152,1471.5273 -443.74862,1471.7644 -434.45932,1471.7593 C -422.42512,1471.7523 -415.75212,1469.3556 -408.02182,1462.2905 C -400.58872,1455.4971 -397.26102,1448.5168 -396.67802,1438.4469 C -395.89912,1424.9898 -401.39152,1414.388 -412.58432,1407.728 C -414.90432,1406.3475 -417.72032,1405.2848 -420.42802,1404.4155 C -420.46102,1404.3953 -420.48722,1404.3626 -420.52182,1404.353 C -423.37892,1403.5719 -424.15982,1400.3539 -423.89682,1398.8219 C -423.88452,1398.7504 -423.87682,1398.651 -423.86562,1398.5719 C -422.70062,1391.3274 -419.98672,1374.6745 -416.05302,1350.8843 C -406.42332,1292.643 -405.36972,1286.4016 -399.86562,1283.7906 C -397.78332,1282.8028 -397.11552,1281.7708 -397.11562,1279.5406 L -397.11562,1276.6031 L -411.11562,1276.6031 L -425.11562,1276.6031 L -425.11562,1279.6031 C -425.11562,1281.8112 -424.64262,1282.6031 -423.33432,1282.6031 C -422.35662,1282.6031 -420.55662,1283.3094 -419.33432,1284.1656 C -417.44682,1285.4876 -417.09312,1286.6559 -417.08432,1291.9156 C -417.07372,1298.2207 -424.85712,1351.5028 -426.02182,1352.8219 C -426.37292,1353.2195 -430.60702,1341.6007 -435.45932,1327.0093 C -444.14102,1300.9016 -444.33152,1300.4883 -446.89682,1300.7906 C -449.37762,1301.083 -449.91482,1302.3835 -458.11562,1327.6031 C -463.81362,1345.126 -466.96082,1353.4255 -467.36562,1352.103 C -469.24882,1345.9506 -478.23392,1289.2873 -477.70932,1287.1969 C -477.29062,1285.5285 -475.93412,1284.308 -473.55302,1283.4469 C -470.61322,1282.3838 -470.05782,1281.7358 -470.30302,1279.6343 L -470.61562,1277.1031 L -490.36562,1276.8219 L -510.11562,1276.5719 z M -516.49062,1276.6031 C -518.52392,1276.6031 -519.75892,1277.4123 -521.05302,1279.6031 C -523.31652,1283.4346 -526.66932,1283.5235 -539.70932,1280.0406 C -561.96292,1274.0968 -578.85902,1276.6762 -589.92812,1287.7593 C -596.56342,1294.4029 -598.20392,1298.581 -598.17812,1308.6031 C -598.15242,1318.5407 -596.37922,1322.8581 -588.95932,1330.7906 C -583.90062,1336.1987 -576.44972,1341.0194 -557.70932,1351.103 C -535.85372,1362.863 -530.70932,1368.2032 -530.70932,1379.1655 C -530.70932,1389.1457 -538.05112,1396.2903 -549.42802,1397.3219 C -564.88422,1398.7233 -580.86062,1387.8897 -590.74062,1369.353 C -593.41592,1364.3336 -594.21202,1363.603 -596.77182,1363.603 L -599.70932,1363.603 L -599.70932,1385.103 L -599.70932,1406.603 L -596.20932,1406.603 C -593.96952,1406.603 -592.70932,1406.1075 -592.70932,1405.2593 C -592.70942,1403.385 -589.14062,1400.2827 -586.02182,1399.2593 C -585.93472,1399.2324 -585.85702,1399.2203 -585.77182,1399.1969 C -585.56012,1399.1345 -585.35202,1399.0815 -585.14682,1399.0405 C -584.72312,1398.9559 -584.20832,1398.9146 -583.58432,1398.9469 C -583.57452,1398.9478 -583.56282,1398.9459 -583.55302,1398.9469 C -583.54362,1398.9473 -583.53132,1398.9462 -583.52182,1398.9469 C -580.51392,1399.2661 -579.98922,1402.4938 -583.58432,1404.6343 C -583.75542,1404.7362 -583.90012,1404.8494 -584.05302,1404.978 C -589.19352,1408.3907 -593.98932,1413.3655 -596.24062,1417.9155 C -599.21352,1423.9237 -598.98902,1437.3519 -595.83432,1443.3219 C -590.47922,1453.4561 -582.75182,1459.4722 -557.70932,1472.9469 C -535.85372,1484.7069 -530.70932,1490.0468 -530.70932,1501.0093 C -530.70932,1510.9893 -538.05112,1518.1027 -549.42802,1519.1343 C -564.88422,1520.5357 -580.86062,1509.7334 -590.74062,1491.1969 C -593.41592,1486.1773 -594.21202,1485.4155 -596.77182,1485.4155 L -599.70932,1485.4155 L -599.70932,1506.9155 L -599.70932,1528.4155 L -596.20932,1528.4155 C -593.96952,1528.4155 -592.70932,1527.9515 -592.70932,1527.103 C -592.70942,1525.0499 -588.42972,1521.5096 -585.14682,1520.853 C -583.17602,1520.4588 -579.03522,1521.3247 -572.70932,1523.4469 C -567.48752,1525.1987 -560.05932,1527.2315 -556.20932,1527.9469 C -547.30722,1529.601 -546.49872,1529.6128 -538.92802,1528.3843 C -506.97942,1523.1996 -495.15432,1489.1617 -517.52182,1466.7905 C -523.45352,1460.8579 -528.12702,1457.8752 -549.05302,1446.8219 C -558.32292,1441.9254 -567.86132,1436.2409 -570.24062,1434.1655 C -583.36082,1422.7207 -574.45882,1406.258 -555.86562,1407.603 C -543.15192,1408.5226 -530.05782,1418.4591 -522.64682,1432.7905 C -519.68052,1438.5269 -518.83702,1439.4123 -516.45932,1439.4155 L -513.70932,1439.4155 L -513.70932,1419.4155 L -513.70932,1399.4155 L -516.45932,1399.4155 C -516.53792,1399.4167 -516.60412,1399.4181 -516.67802,1399.4155 C -518.63612,1399.348 -518.96422,1398.0186 -517.92802,1397.0405 C -517.84872,1396.9655 -517.80262,1396.8936 -517.74062,1396.8219 C -503.09602,1383.816 -501.19372,1361.2775 -517.52182,1344.9469 C -523.45352,1339.0141 -528.12702,1336.0622 -549.05302,1325.0093 C -558.32292,1320.1129 -567.86132,1314.3974 -570.24062,1312.3219 C -583.36082,1300.877 -574.45882,1284.4458 -555.86562,1285.7906 C -543.15192,1286.7102 -530.05782,1296.6155 -522.64682,1310.9469 C -519.68052,1316.6833 -518.83702,1317.6 -516.45932,1317.6031 L -513.70932,1317.6031 L -513.70932,1297.1031 L -513.70932,1276.6031 L -516.49062,1276.6031 z M -253.80302,1286.5719 C -252.98712,1286.5683 -252.04572,1286.6031 -250.95932,1286.6031 C -238.45602,1286.6031 -230.84882,1297.4479 -230.74062,1312.1031 C -230.65562,1323.6257 -234.53042,1331.7649 -241.86562,1335.4469 C -243.89632,1336.4662 -247.80302,1337.5353 -250.55302,1337.8219 C -259.68442,1338.7737 -259.05302,1340.5959 -259.05302,1313.6343 C -259.05312,1290.172 -259.51502,1286.5976 -253.80302,1286.5719 z M -351.92802,1287.6031 C -351.56662,1287.5842 -351.17702,1287.6031 -350.80302,1287.6031 C -338.42042,1287.6031 -330.37182,1298.7544 -327.45932,1323.7281 C -325.99022,1336.325 -326.77342,1358.0149 -328.99062,1368.603 C -331.20312,1379.1689 -336.71182,1390.0216 -341.36562,1393.0093 C -352.07732,1399.8854 -364.15222,1394.2188 -369.58432,1379.7593 C -373.71872,1368.7538 -374.85012,1362.2272 -374.86562,1341.6031 C -374.88502,1315.9671 -372.45632,1306.3609 -364.83432,1295.3219 C -361.37932,1290.3182 -357.35162,1287.8872 -351.92802,1287.6031 z M -145.30304,1288.8531 C -139.18284,1288.7302 -134.30064,1291.0411 -129.30304,1296.3843 C -118.85344,1307.5559 -113.33434,1330.1141 -115.55304,1352.5405 C -117.55514,1372.7758 -123.62214,1385.5198 -133.64684,1390.6343 C -137.29224,1392.4941 -145.16364,1393.0603 -151.27184,1391.8843 L -153.52184,1391.4469 L -153.52184,1340.6031 L -153.52184,1289.7281 L -147.99064,1289.0406 C -147.06064,1288.9244 -146.17744,1288.8706 -145.30304,1288.8531 z M -452.49062,1340.3219 C -452.36962,1340.3241 -452.27552,1340.4403 -452.17802,1340.6343 C -451.77652,1341.4322 -446.97882,1356.6164 -441.52182,1374.353 L -434.49062,1397.1969 C -434.48862,1397.2079 -434.49272,1397.2168 -434.49062,1397.228 C -434.45732,1397.4006 -434.40232,1397.5918 -434.33432,1397.8219 C -433.81222,1399.5901 -435.20672,1401.5531 -437.70932,1401.4469 C -437.71972,1401.4461 -437.73012,1401.4479 -437.74062,1401.4469 C -444.55162,1401.0412 -453.88352,1400.8677 -467.70932,1400.6969 L -468.30302,1400.6969 L -468.42802,1400.6969 C -470.34432,1400.5736 -470.97582,1398.3535 -470.52182,1396.8219 C -470.51882,1396.8119 -470.52462,1396.8005 -470.52182,1396.7905 L -466.14682,1382.353 C -455.32122,1346.6324 -453.33802,1340.3062 -452.49062,1340.3219 z M -449.08432,1410.5719 C -439.54182,1410.3357 -430.20452,1414.2297 -426.20932,1421.728 C -424.37602,1425.1687 -423.99642,1427.56 -423.99062,1434.9469 C -423.98422,1443.0743 -424.26242,1444.4527 -426.95932,1449.3219 C -428.72142,1452.5035 -431.53112,1455.7665 -433.83432,1457.2905 C -438.62792,1460.4628 -451.01762,1461.3509 -456.20932,1459.0093 L -459.45932,1457.5405 L -459.45932,1435.0405 C -459.45932,1419.7094 -459.11842,1412.3496 -458.36562,1411.8843 C -457.75822,1411.5087 -454.45982,1410.9729 -451.02182,1410.6969 C -450.36612,1410.6442 -449.72052,1410.5875 -449.08432,1410.5719 z M -251.49062,1412.6969 C -245.37032,1412.5738 -240.48812,1414.8852 -235.49062,1420.228 C -225.04102,1431.3996 -219.52192,1451.9577 -221.74062,1474.3843 C -223.74262,1494.6193 -229.80952,1507.3638 -239.83432,1512.478 C -243.47972,1514.3378 -251.35112,1514.9044 -257.45932,1513.728 L -259.70932,1513.2905 L -259.70932,1462.4469 L -259.70932,1413.5719 L -254.17802,1412.8843 C -253.24812,1412.7679 -252.36502,1412.7144 -251.49062,1412.6969 z M -358.67802,1441.3219 L -351.83432,1460.1343 C -348.06882,1470.4814 -344.73442,1479.7343 -344.42802,1480.6969 C -343.91442,1482.311 -345.05582,1482.4469 -359.05302,1482.4469 C -370.76692,1482.4468 -374.12052,1482.1624 -373.77182,1481.1969 C -373.52332,1480.5093 -370.01622,1471.2565 -365.99062,1460.6343 L -358.67802,1441.3219 z"
       id="path3385" />
    <path
       style="fill:#ffffff;stroke:none;stroke-width:1.29999995;stroke-linejoin:bevel;stroke-miterlimit:4;stroke-dasharray:none;stroke-opacity:1"
       d="M -31.773306,1278.1097 C -33.811036,1278.1662 -35.768706,1278.4859 -37.335806,1279.0785 C -42.722296,1281.1155 -47.173206,1287.049 -48.085806,1293.3597 C -49.323996,1301.9223 -46.854156,1310.5116 -40.242056,1320.4222 C -37.932536,1323.8841 -36.054356,1326.8861 -36.054556,1327.1097 C -36.054536,1327.3334 -37.029656,1327.516 -38.242056,1327.516 C -41.528536,1327.5159 -45.355006,1329.8083 -46.835806,1332.6722 C -48.694796,1336.2669 -47.627166,1340.5133 -46.773306,1345.516 C -46.095386,1349.4877 -46.773306,1360.4561 -46.773306,1365.0472 C -46.878796,1368.48 -46.398286,1372.2416 -46.398306,1376.1097 C -46.398236,1392.4502 -46.192106,1396.0159 -45.210806,1396.016 C -44.519896,1396.0159 -43.611656,1394.3848 -43.054556,1392.1722 C -41.114536,1384.4677 -39.006756,1383.9284 -12.179556,1383.9222 L 8.6329435,1383.891 L 11.445444,1387.391 C 20.534964,1398.7016 21.183194,1412.8363 12.914194,1418.7347 C 10.273204,1420.6185 9.6719935,1420.6409 -13.835806,1420.641 L -37.898306,1420.641 L -40.304556,1417.9847 C -41.687936,1416.4364 -42.940806,1413.7823 -43.273306,1411.7035 C -43.648536,1409.3566 -44.276556,1408.1097 -45.117056,1408.1097 C -46.219736,1408.1097 -46.398206,1411.0095 -46.398306,1428.4222 C -46.398236,1445.6254 -46.213206,1448.7347 -45.148306,1448.7347 C -44.375336,1448.7347 -43.664256,1447.5085 -43.304556,1445.516 C -41.775636,1437.0464 -41.304556,1436.9091 -13.117056,1436.4535 C 13.539464,1436.0228 16.190944,1435.4892 22.320444,1429.3597 C 26.751264,1424.929 28.256644,1420.0188 27.820444,1411.4222 C 27.426564,1403.6513 24.892294,1398.0478 17.976694,1389.7347 L 13.132944,1383.891 L 20.539194,1383.891 C 27.651004,1383.8909 27.945444,1383.8185 27.945444,1381.9535 C 27.945464,1380.4217 20.502894,1356.5427 19.726694,1355.5785 C 19.700464,1355.546 19.658744,1355.5191 19.570444,1355.516 C 19.305664,1355.5065 18.789944,1355.6245 18.257944,1355.8285 C 17.280364,1356.2038 17.081144,1357.314 17.382944,1360.4535 C 17.740364,1364.1739 17.516044,1364.8068 15.382944,1366.4847 C 13.071564,1368.3028 12.351094,1368.3285 -12.398306,1368.3285 L -37.835806,1368.3285 L -39.929556,1366.2347 C -43.171626,1362.5722 -43.715366,1358.1532 -42.867056,1353.5472 C -41.574096,1348.635 -40.294956,1345.9624 -38.304556,1345.2347 C -36.382176,1344.5319 -35.761456,1343.49 -10.804556,1343.0785 C 13.658864,1342.6753 15.594194,1342.5164 18.414194,1340.8597 C 24.808704,1337.1032 27.080444,1331.362 27.695444,1317.141 C 27.752364,1315.8231 27.793994,1314.5295 27.789194,1313.266 C 27.716304,1294.3128 20.761094,1281.7036 10.101694,1281.7035 C 5.4407635,1281.7035 2.8518935,1284.3754 2.8516935,1289.2347 C 2.8517635,1294.9442 5.5700935,1297.266 12.226694,1297.266 C 20.766164,1297.266 24.479394,1301.7743 24.476694,1312.141 C 24.475164,1318.6583 22.604094,1322.9035 18.726694,1325.141 C 15.060164,1327.2568 1.3350935,1328.334 0.85169352,1326.5472 C -1.5842365,1317.5439 -6.7303065,1302.9898 -9.6483065,1296.8285 C -14.383036,1286.8309 -17.840706,1282.1835 -22.273306,1279.9222 C -24.762236,1278.6524 -28.377006,1278.0156 -31.773306,1278.1097 z M -26.085806,1293.8597 C -21.679896,1293.7317 -17.984606,1296.4431 -14.085806,1302.3285 C -11.995196,1305.4846 -9.6154565,1309.6138 -8.8045565,1311.516 C -7.3991365,1314.8122 -3.1794565,1326.6305 -3.1795565,1327.266 C -3.1795365,1327.432 -9.7141565,1327.4276 -17.679556,1327.2972 L -32.148306,1327.0785 L -35.460806,1320.4847 C -41.548196,1308.3971 -40.554956,1299.7375 -32.617056,1295.7347 C -30.236936,1294.5345 -28.088606,1293.9179 -26.085806,1293.8597 z M -13.273306,1453.0472 C -26.602436,1453.2243 -39.429256,1459.4146 -45.492056,1471.5472 C -47.724336,1476.0143 -48.148306,1477.8316 -48.148306,1483.1722 C -48.148336,1490.6725 -46.301456,1496.1883 -41.679556,1502.4847 L -38.460806,1506.8285 L -43.304556,1506.8285 C -47.840036,1506.8285 -48.148306,1506.9521 -48.148306,1508.9222 C -48.148336,1510.0759 -47.679726,1512.69 -45.335806,1519.6722 C -43.450596,1525.288 -40.902806,1530.2788 -39.867056,1526.5472 C -38.885206,1523.0098 -36.745506,1523.0253 -32.773306,1523.2972 C -30.647086,1523.4428 -12.155156,1522.3939 18.195444,1522.391 C 64.371964,1522.3862 65.976694,1522.306 65.976694,1520.7347 C 65.976664,1519.3728 60.893244,1504.2646 57.382944,1495.2035 C 55.951964,1491.5095 54.354544,1493.6766 54.632944,1498.9222 C 54.829064,1502.6158 54.583394,1503.3768 52.539194,1504.9847 C 50.381804,1506.6818 49.151394,1506.8285 36.601694,1506.8285 L 23.007944,1506.8285 L 25.195444,1502.2972 C 29.811764,1492.6679 28.536194,1480.6512 21.851694,1470.641 C 13.872064,1458.6916 0.055893524,1452.8701 -13.273306,1453.0472 z M -6.6483065,1469.4535 C 11.929164,1469.4536 23.651344,1477.6943 23.632944,1488.016 C 23.625864,1492.0548 21.833544,1498.431 17.945444,1502.7347 C 12.752364,1508.4829 8.780894,1506.8845 -12.585806,1507.8597 C -12.585806,1507.8597 -28.882774,1507.75 -33.054556,1507.141 C -35.726338,1504.282 -36.773306,1500.4222 -36.773306,1500.4222 C -39.090536,1494.6805 -40.481556,1488.8248 -38.054556,1484.6722 C -32.061536,1474.4183 -21.804406,1469.4535 -6.6483065,1469.4535 z"
       id="path3622"
       sodipodi:nodetypes="cssssssscssscccscccsssssssscccssssssccccsssssssssssssccssscccsccsscccsssscsssscccsccsscccsc" />
    <rect
       style="fill:#ffffff;fill-opacity:1;fill-rule:nonzero;stroke:none;stroke-width:3;stroke-linecap:round;stroke-linejoin:round;stroke-miterlimit:4;stroke-dasharray:none;stroke-opacity:1"
       id="rect3630"
       width="815.46301"
       height="10.384777"
       x="-631.23035"
       y="-1563.5796"
       transform="scale(1,-1)" />
  </g>
</svg>
